<svg xmlns="http://www.w3.org/2000/svg" width="95" height="95" fill="none" viewBox="0 0 95 95">
  <path fill="#fff" d="M38.535 44v-7.65l-1.755 1.072v-1.729l1.755-1.053h1.599V44h-1.599Zm3.815 0v-1.605h1.605V44H42.35Zm3.428-.013v-1.365l4.004-3.569c.312-.277.529-.539.65-.786s.182-.485.182-.715c0-.312-.067-.59-.202-.832a1.511 1.511 0 0 0-1.371-.8 1.64 1.64 0 0 0-.865.228c-.247.147-.44.344-.578.591a1.511 1.511 0 0 0-.195.8H45.79c0-.624.139-1.168.416-1.632a2.894 2.894 0 0 1 1.157-1.078c.494-.256 1.064-.384 1.71-.384.597 0 1.135.134 1.611.403a2.9 2.9 0 0 1 1.125 1.105c.273.468.41 1.008.41 1.618 0 .447-.061.822-.183 1.125a2.636 2.636 0 0 1-.546.839c-.238.255-.535.539-.89.851l-2.84 2.515-.144-.39h4.602v1.476h-6.441Zm10.78.208a3.09 3.09 0 0 1-1.333-.292 3.281 3.281 0 0 1-1.066-.82 3.177 3.177 0 0 1-.637-1.209l1.508-.403c.06.252.171.469.332.65.164.182.355.323.572.423.22.1.448.15.682.15a1.665 1.665 0 0 0 1.43-.813c.147-.251.221-.529.221-.832a1.55 1.55 0 0 0-.227-.825 1.6 1.6 0 0 0-.598-.592 1.604 1.604 0 0 0-.826-.221c-.36 0-.659.065-.897.195-.234.13-.414.269-.54.416l-1.338-.429.286-4.953h5.083v1.469h-4.245l.585-.553-.208 3.446-.286-.352a2.37 2.37 0 0 1 .845-.493c.32-.109.63-.163.93-.163.585 0 1.102.134 1.553.403.455.264.81.626 1.066 1.086.26.459.39.981.39 1.566a2.91 2.91 0 0 1-.455 1.593 3.378 3.378 0 0 1-1.202 1.13 3.223 3.223 0 0 1-1.625.423ZM31.04 62v-9.36h1.566v7.891h4.134V62h-5.7Zm6.932-8.086v-1.437h1.566v1.437h-1.566Zm0 8.086v-7.02h1.566V62h-1.566Zm7.628 0a6.398 6.398 0 0 1-1.365.11 3.129 3.129 0 0 1-1.19-.24 1.648 1.648 0 0 1-.8-.734 2.094 2.094 0 0 1-.253-.93 39.412 39.412 0 0 1-.013-1.073V53.03h1.56v6.012c0 .282.002.53.007.741.008.213.054.386.136.52.156.26.405.406.748.436.342.03.732.013 1.17-.052V62Zm-4.895-5.791V54.98H45.6v1.229h-4.895Zm9.24 5.986c-.71 0-1.334-.154-1.872-.462a3.286 3.286 0 0 1-1.26-1.28c-.3-.546-.45-1.174-.45-1.885 0-.767.148-1.432.443-1.995a3.228 3.228 0 0 1 1.228-1.32c.525-.312 1.131-.468 1.82-.468.728 0 1.346.171 1.853.514.511.337.89.816 1.137 1.436s.34 1.35.28 2.19H51.57v-.572c-.004-.762-.138-1.319-.403-1.67-.264-.351-.68-.526-1.248-.526-.641 0-1.118.199-1.43.598-.312.394-.468.972-.468 1.735 0 .71.156 1.261.468 1.651.312.39.767.585 1.365.585.386 0 .717-.084.995-.254.281-.173.498-.422.65-.747l1.547.468a3.136 3.136 0 0 1-1.248 1.476 3.414 3.414 0 0 1-1.853.526Zm-2.418-3.27v-1.182h4.83v1.182h-4.83ZM54.574 62v-7.02h1.385v1.71l-.17-.221c.087-.235.202-.447.345-.638.147-.195.323-.355.527-.48a2.14 2.14 0 0 1 .572-.273c.212-.07.429-.111.65-.124.22-.017.435-.009.643.026v1.463a2.008 2.008 0 0 0-.721-.059 1.653 1.653 0 0 0-.728.227 1.635 1.635 0 0 0-.533.449c-.135.182-.234.39-.3.624a2.78 2.78 0 0 0-.097.748V62h-1.573Zm7.649.195c-.867 0-1.57-.195-2.112-.585-.542-.39-.871-.938-.988-1.645l1.599-.247c.082.347.264.62.545.82.282.199.637.299 1.066.299.378 0 .668-.074.872-.222a.724.724 0 0 0 .312-.617.587.587 0 0 0-.117-.383c-.074-.1-.239-.196-.494-.287a15.723 15.723 0 0 0-1.177-.344c-.59-.156-1.057-.323-1.404-.5-.347-.183-.596-.397-.748-.644-.151-.247-.227-.546-.227-.897 0-.438.115-.819.344-1.144.23-.325.55-.574.962-.748.412-.177.898-.266 1.456-.266.546 0 1.03.085 1.45.254.425.169.767.409 1.027.721.26.312.42.678.481 1.099l-1.599.285a1.007 1.007 0 0 0-.41-.708c-.23-.173-.537-.27-.922-.292-.369-.022-.666.034-.891.169-.225.13-.338.314-.338.552 0 .134.046.25.137.344.09.096.273.191.546.286.277.096.688.213 1.234.352.56.142 1.006.307 1.34.493.337.182.58.401.727.657.152.256.228.566.228.93 0 .706-.258 1.26-.773 1.663-.512.403-1.22.605-2.126.605Z"/>
  <path fill="#fff" fill-opacity=".3" fill-rule="evenodd" d="M47.5 11.5c-19.882 0-36 16.118-36 36s16.118 36 36 36 36-16.118 36-36-16.118-36-36-36Zm-47 36c0-25.957 21.043-47 47-47s47 21.043 47 47-21.043 47-47 47-47-21.043-47-47Z" clip-rule="evenodd"/>
  <path fill="#fff" fill-rule="evenodd" d="M56.818 12.727A36 36 0 1 0 83.5 47.5a5.5 5.5 0 1 1 11 0A47 47 0 1 1 59.664 2.101a5.5 5.5 0 1 1-2.846 10.626Z" clip-rule="evenodd"/>
</svg>
