<svg xmlns="http://www.w3.org/2000/svg" width="46" height="46" fill="none" viewBox="0 0 46 46">
  <circle cx="23" cy="23" r="21" stroke="#F5F5F5" stroke-width="3"/>
  <path stroke="#8676FE" stroke-linecap="round" stroke-width="3" d="M19.138 2.358a21 21 0 0 1 15.055 38.41"/>
  <circle cx="20" cy="2" r="1" fill="#fff"/>
  <path fill="#191C32" d="M13.127 28.195a3.165 3.165 0 0 1-1.638-.429 3.209 3.209 0 0 1-1.157-1.19c-.281-.502-.422-1.074-.422-1.716v-2.983c0-.68.14-1.278.422-1.794a3.06 3.06 0 0 1 1.183-1.202c.508-.287 1.09-.43 1.749-.43.494 0 .958.094 1.391.28.433.186.808.464 1.125.832l-.995.93c-.178-.23-.4-.412-.67-.546a1.806 1.806 0 0 0-.851-.209c-.39 0-.732.094-1.027.28a1.963 1.963 0 0 0-.943 1.683v1.716l-.266-.299a2.913 2.913 0 0 1 1.001-.831 2.775 2.775 0 0 1 1.28-.306c.581 0 1.099.136 1.554.41.46.268.819.634 1.079 1.098.264.464.396.986.396 1.566 0 .585-.147 1.116-.442 1.593-.29.472-.68.85-1.17 1.131a3.167 3.167 0 0 1-1.599.416Zm0-1.306c.338 0 .646-.083.923-.247a1.87 1.87 0 0 0 .663-.663c.165-.278.248-.585.248-.924a1.77 1.77 0 0 0-.248-.922 1.818 1.818 0 0 0-.656-.663 1.773 1.773 0 0 0-.923-.247c-.338 0-.648.082-.93.247a1.87 1.87 0 0 0-.663.663 1.773 1.773 0 0 0-.247.922c0 .334.083.64.247.917.165.277.386.5.663.67.278.164.585.247.923.247Zm8.12 1.306c-.637 0-1.2-.139-1.69-.416a3.09 3.09 0 0 1-1.157-1.157c-.277-.49-.416-1.053-.416-1.69v-3.224c0-.637.139-1.2.416-1.69.282-.49.668-.873 1.157-1.15.49-.282 1.053-.423 1.69-.423s1.2.14 1.69.422c.49.278.873.661 1.15 1.151.282.49.423 1.053.423 1.69v3.224c0 .637-.14 1.2-.422 1.69a3.05 3.05 0 0 1-1.15 1.157c-.49.277-1.054.416-1.69.416Zm0-1.3c.347 0 .661-.082.943-.247a1.92 1.92 0 0 0 .682-.676c.17-.286.254-.605.254-.956v-3.405c0-.347-.085-.661-.254-.943a1.857 1.857 0 0 0-.682-.676 1.796 1.796 0 0 0-.943-.254 1.873 1.873 0 0 0-1.878 1.872v3.407c0 .35.084.669.253.955.17.282.395.507.676.676.286.165.603.247.95.247ZM27.495 28l-.91-.91 8.456-8.45.91.916L27.496 28Zm6.506.195c-.428 0-.82-.104-1.176-.312a2.464 2.464 0 0 1-.845-.845 2.263 2.263 0 0 1-.319-1.183c0-.425.109-.815.325-1.17.217-.355.503-.64.858-.851a2.216 2.216 0 0 1 1.157-.319c.43 0 .822.106 1.177.319.355.207.637.49.845.845.212.35.319.743.319 1.176 0 .433-.107.828-.319 1.183a2.39 2.39 0 0 1-.845.845 2.286 2.286 0 0 1-1.176.312Zm0-1.177c.213 0 .406-.052.579-.155.178-.109.319-.252.422-.43a1.09 1.09 0 0 0 .163-.578c0-.208-.054-.4-.163-.579a1.161 1.161 0 0 0-.422-.422 1.07 1.07 0 0 0-.578-.162c-.209 0-.401.054-.579.162a1.233 1.233 0 0 0-.422.422 1.129 1.129 0 0 0-.157.579c0 .208.053.4.157.578.108.178.249.321.422.43.178.104.37.155.578.155Zm-5.466-3.893a2.29 2.29 0 0 1-1.177-.312 2.447 2.447 0 0 1-.851-.845 2.299 2.299 0 0 1-.312-1.183 2.2 2.2 0 0 1 .325-1.17c.217-.355.503-.64.858-.851a2.216 2.216 0 0 1 1.157-.319c.429 0 .819.106 1.17.319.355.207.64.49.852.845.212.35.318.743.318 1.176 0 .433-.106.828-.319 1.183a2.445 2.445 0 0 1-.851.845 2.252 2.252 0 0 1-1.17.312Zm0-1.177c.208 0 .4-.052.578-.155.178-.109.319-.252.423-.43a1.09 1.09 0 0 0 .162-.578c0-.208-.054-.4-.162-.579a1.161 1.161 0 0 0-.423-.422 1.091 1.091 0 0 0-.578-.162c-.208 0-.4.054-.579.162a1.233 1.233 0 0 0-.422.422 1.096 1.096 0 0 0-.162.579c0 .208.054.4.162.578.108.178.25.321.422.43.174.104.367.155.579.155Z"/>
</svg>
