<svg xmlns="http://www.w3.org/2000/svg" width="382" height="179" fill="none" viewBox="0 0 382 179">
  <rect width="34" height="36" y="118" fill="#E8F1FD" rx="4"/>
  <path fill="#9D9D9D" d="M5.34 177v-8.64h1.134l3.132 6.498 3.114-6.498h1.146v8.634h-1.188v-5.91L9.888 177h-.57l-2.796-5.916V177H5.34Zm13.021.18c-.648 0-1.21-.146-1.686-.438a2.952 2.952 0 0 1-1.104-1.206c-.256-.516-.384-1.11-.384-1.782 0-.676.132-1.27.396-1.782a2.902 2.902 0 0 1 1.11-1.2c.476-.288 1.032-.432 1.668-.432.648 0 1.21.146 1.686.438.476.292.844.694 1.104 1.206.26.512.39 1.102.39 1.77 0 .676-.132 1.272-.396 1.788-.26.512-.628.914-1.104 1.206-.476.288-1.036.432-1.68.432Zm0-1.182c.62 0 1.082-.208 1.386-.624.308-.42.462-.96.462-1.62 0-.676-.156-1.216-.468-1.62-.308-.408-.768-.612-1.38-.612-.42 0-.766.096-1.038.288-.272.188-.474.45-.606.786a3.12 3.12 0 0 0-.198 1.158c0 .68.156 1.224.468 1.632.312.408.77.612 1.374.612ZM27.407 177v-3.186c0-.252-.021-.51-.066-.774a2.32 2.32 0 0 0-.24-.744 1.408 1.408 0 0 0-.497-.552c-.212-.14-.49-.21-.834-.21-.224 0-.436.038-.636.114-.2.072-.377.19-.529.354a1.8 1.8 0 0 0-.354.648 3.3 3.3 0 0 0-.126.978l-.78-.294c0-.588.11-1.106.33-1.554a2.48 2.48 0 0 1 .948-1.056c.412-.252.91-.378 1.494-.378.448 0 .825.072 1.128.216.304.144.55.334.738.57.192.232.338.486.439.762.1.276.168.546.203.81.037.264.055.496.055.696v3.6h-1.273Zm-4.553 0v-6.48h1.122v1.872h.15V177h-1.273Z"/>
  <rect width="34" height="80" x="57" y="74" fill="#E8F1FD" rx="4"/>
  <path fill="#9D9D9D" d="M65.994 177v-7.458H63.12v-1.182h7.002v1.182h-2.874V177h-1.254Zm6.933.174c-.449 0-.825-.072-1.129-.216a2.133 2.133 0 0 1-.743-.564 2.705 2.705 0 0 1-.433-.768 3.942 3.942 0 0 1-.204-.81 5.229 5.229 0 0 1-.053-.696v-3.6h1.272v3.186c0 .252.02.512.06.78.043.264.123.51.24.738.12.228.285.412.498.552.215.14.495.21.84.21.224 0 .435-.036.635-.108.2-.076.374-.196.523-.36.151-.164.27-.38.353-.648a3.16 3.16 0 0 0 .132-.978l.78.294c0 .588-.11 1.108-.33 1.56-.22.448-.535.798-.947 1.05-.413.252-.91.378-1.495.378Zm2.141-.174v-1.872h-.15v-4.608h1.266V177H75.07Zm5.673.18c-.644 0-1.21-.14-1.698-.42a2.987 2.987 0 0 1-1.134-1.182c-.268-.508-.402-1.096-.402-1.764 0-.708.132-1.322.396-1.842.268-.52.64-.922 1.116-1.206.476-.284 1.03-.426 1.662-.426.66 0 1.222.154 1.686.462.464.304.81.738 1.038 1.302.232.564.324 1.234.276 2.01h-1.254v-.456c-.008-.752-.152-1.308-.432-1.668-.276-.36-.698-.54-1.266-.54-.628 0-1.1.198-1.416.594-.316.396-.474.968-.474 1.716 0 .712.158 1.264.474 1.656.316.388.772.582 1.368.582.392 0 .73-.088 1.014-.264.288-.18.512-.436.672-.768l1.23.39a2.92 2.92 0 0 1-1.146 1.35 3.19 3.19 0 0 1-1.71.474Zm-2.31-3.066v-.978h4.626v.978h-4.626Z"/>
  <rect width="34" height="52" x="114" y="102" fill="#E8F1FD" rx="4"/>
  <path fill="#9D9D9D" d="m120.67 177-2.508-8.64h1.314l1.818 6.534 1.818-6.528 1.32-.006 1.818 6.534 1.818-6.534h1.32l-2.514 8.64h-1.248l-1.854-6.462-1.854 6.462h-1.248Zm11.884.18c-.644 0-1.21-.14-1.698-.42a2.987 2.987 0 0 1-1.134-1.182c-.268-.508-.402-1.096-.402-1.764 0-.708.132-1.322.396-1.842.268-.52.64-.922 1.116-1.206.476-.284 1.03-.426 1.662-.426.66 0 1.222.154 1.686.462.464.304.81.738 1.038 1.302.232.564.324 1.234.276 2.01h-1.254v-.456c-.008-.752-.152-1.308-.432-1.668-.276-.36-.698-.54-1.266-.54-.628 0-1.1.198-1.416.594-.316.396-.474.968-.474 1.716 0 .712.158 1.264.474 1.656.316.388.772.582 1.368.582.392 0 .73-.088 1.014-.264.288-.18.512-.436.672-.768l1.23.39a2.92 2.92 0 0 1-1.146 1.35 3.19 3.19 0 0 1-1.71.474Zm-2.31-3.066v-.978h4.626v.978h-4.626Zm9.17 3.066c-.604 0-1.126-.15-1.566-.45a2.97 2.97 0 0 1-1.014-1.224c-.236-.52-.354-1.104-.354-1.752 0-.652.12-1.234.36-1.746a2.91 2.91 0 0 1 1.02-1.218c.444-.3.97-.45 1.578-.45.612 0 1.126.15 1.542.45.42.296.736.702.948 1.218.216.516.324 1.098.324 1.746 0 .648-.108 1.23-.324 1.746a2.828 2.828 0 0 1-.954 1.23c-.42.3-.94.45-1.56.45Zm.174-1.134c.412 0 .748-.098 1.008-.294.26-.196.45-.466.57-.81a3.6 3.6 0 0 0 .18-1.188c0-.448-.062-.844-.186-1.188a1.654 1.654 0 0 0-.564-.804c-.252-.192-.574-.288-.966-.288-.416 0-.758.102-1.026.306a1.83 1.83 0 0 0-.6.822 3.283 3.283 0 0 0-.192 1.152c0 .428.064.816.192 1.164.132.344.328.618.588.822.264.204.596.306.996.306Zm1.758.954v-4.662h-.144v-3.978h1.26V177h-1.116Z"/>
  <rect width="34" height="82" x="171" y="72" fill="#E8F1FD" rx="4"/>
  <path fill="#9D9D9D" d="M179.494 177v-7.458h-2.874v-1.182h7.002v1.182h-2.874V177h-1.254Zm9.636 0v-3.186c0-.252-.022-.51-.066-.774a2.32 2.32 0 0 0-.24-.744 1.408 1.408 0 0 0-.498-.552c-.212-.14-.49-.21-.834-.21-.224 0-.436.038-.636.114-.2.072-.376.19-.528.354-.148.164-.266.38-.354.648a3.3 3.3 0 0 0-.126.978l-.78-.294c0-.588.11-1.106.33-1.554a2.48 2.48 0 0 1 .948-1.056c.412-.252.91-.378 1.494-.378.448 0 .824.072 1.128.216.304.144.55.334.738.57.192.232.338.486.438.762.1.276.168.546.204.81.036.264.054.496.054.696v3.6h-1.272Zm-4.554 0v-8.64h1.122v4.662h.15V177h-1.272Zm9.831.174c-.448 0-.824-.072-1.128-.216a2.133 2.133 0 0 1-.744-.564 2.705 2.705 0 0 1-.432-.768 3.942 3.942 0 0 1-.204-.81 5.229 5.229 0 0 1-.054-.696v-3.6h1.272v3.186c0 .252.02.512.06.78.044.264.124.51.24.738.12.228.286.412.498.552.216.14.496.21.84.21.224 0 .436-.036.636-.108.2-.076.374-.196.522-.36.152-.164.27-.38.354-.648a3.16 3.16 0 0 0 .132-.978l.78.294c0 .588-.11 1.108-.33 1.56-.22.448-.536.798-.948 1.05-.412.252-.91.378-1.494.378Zm2.142-.174v-1.872h-.15v-4.608h1.266V177h-1.116Z"/>
  <rect width="34" height="79" x="291" y="75" fill="#E8F1FD" rx="4"/>
  <path fill="#9D9D9D" d="M301.972 177.18c-.62 0-1.18-.106-1.68-.318a3.223 3.223 0 0 1-1.23-.918c-.32-.4-.528-.874-.624-1.422l1.308-.198c.132.528.408.94.828 1.236.42.292.91.438 1.47.438.348 0 .668-.054.96-.162.292-.112.526-.27.702-.474a1.1 1.1 0 0 0 .27-.744.969.969 0 0 0-.306-.726 1.201 1.201 0 0 0-.342-.234 2.563 2.563 0 0 0-.438-.174l-2.214-.654a5.348 5.348 0 0 1-.66-.246 2.604 2.604 0 0 1-.618-.402 1.972 1.972 0 0 1-.45-.618c-.116-.248-.174-.548-.174-.9 0-.532.136-.982.408-1.35a2.526 2.526 0 0 1 1.116-.84 4.107 4.107 0 0 1 1.572-.288c.584.008 1.106.112 1.566.312.464.2.848.488 1.152.864.308.372.52.824.636 1.356l-1.344.228a1.764 1.764 0 0 0-.384-.834 1.923 1.923 0 0 0-.72-.54 2.29 2.29 0 0 0-.924-.198 2.26 2.26 0 0 0-.882.144c-.264.104-.476.25-.636.438a.986.986 0 0 0-.234.648c0 .24.07.434.21.582.14.148.312.266.516.354.208.084.414.154.618.21l1.596.45c.2.056.426.132.678.228.256.092.502.222.738.39.24.168.438.392.594.672.156.276.234.624.234 1.044 0 .436-.088.82-.264 1.152a2.44 2.44 0 0 1-.726.828c-.304.22-.656.386-1.056.498-.4.112-.822.168-1.266.168Zm6.421 0c-.48 0-.882-.088-1.206-.264a1.88 1.88 0 0 1-.738-.708 1.972 1.972 0 0 1-.246-.972c0-.328.058-.616.174-.864.116-.248.288-.458.516-.63a2.76 2.76 0 0 1 .84-.426 9.21 9.21 0 0 1 .978-.222 33.24 33.24 0 0 1 1.146-.18l1.2-.168-.456.252c.008-.508-.1-.884-.324-1.128-.22-.248-.6-.372-1.14-.372-.34 0-.652.08-.936.24-.284.156-.482.416-.594.78l-1.17-.36c.16-.556.464-.998.912-1.326.452-.328 1.052-.492 1.8-.492.58 0 1.084.1 1.512.3.432.196.748.508.948.936.104.212.168.436.192.672.024.236.036.49.036.762V177h-1.11v-1.482l.216.192c-.268.496-.61.866-1.026 1.11-.412.24-.92.36-1.524.36Zm.222-1.026c.356 0 .662-.062.918-.186.256-.128.462-.29.618-.486.156-.196.258-.4.306-.612a2.15 2.15 0 0 0 .114-.648c.012-.24.018-.432.018-.576l.408.15-1.08.162a27.47 27.47 0 0 0-.882.144c-.26.044-.492.098-.696.162-.172.06-.326.132-.462.216a1.058 1.058 0 0 0-.318.306.802.802 0 0 0-.114.438c0 .168.042.324.126.468.084.14.212.252.384.336.172.084.392.126.66.126Zm8.488.846c-.408.08-.808.114-1.2.102a2.716 2.716 0 0 1-1.05-.228c-.308-.14-.54-.36-.696-.66a1.93 1.93 0 0 1-.228-.816c-.008-.28-.012-.596-.012-.948v-5.73h1.26v5.67c0 .26.002.486.006.678.008.192.05.354.126.486.144.248.372.39.684.426.316.032.686.018 1.11-.042V177Zm-4.428-5.472v-1.008h4.428v1.008h-4.428Z"/>
  <rect width="34" height="39" x="348" y="115" fill="#E8F1FD" rx="4"/>
  <path fill="#9D9D9D" d="M357.472 177.18c-.62 0-1.18-.106-1.68-.318a3.223 3.223 0 0 1-1.23-.918c-.32-.4-.528-.874-.624-1.422l1.308-.198c.132.528.408.94.828 1.236.42.292.91.438 1.47.438.348 0 .668-.054.96-.162.292-.112.526-.27.702-.474a1.1 1.1 0 0 0 .27-.744.969.969 0 0 0-.306-.726 1.201 1.201 0 0 0-.342-.234 2.563 2.563 0 0 0-.438-.174l-2.214-.654a5.348 5.348 0 0 1-.66-.246 2.604 2.604 0 0 1-.618-.402 1.972 1.972 0 0 1-.45-.618c-.116-.248-.174-.548-.174-.9 0-.532.136-.982.408-1.35a2.526 2.526 0 0 1 1.116-.84 4.107 4.107 0 0 1 1.572-.288c.584.008 1.106.112 1.566.312.464.2.848.488 1.152.864.308.372.52.824.636 1.356l-1.344.228a1.764 1.764 0 0 0-.384-.834 1.923 1.923 0 0 0-.72-.54 2.29 2.29 0 0 0-.924-.198 2.26 2.26 0 0 0-.882.144c-.264.104-.476.25-.636.438a.986.986 0 0 0-.234.648c0 .24.07.434.21.582.14.148.312.266.516.354.208.084.414.154.618.21l1.596.45c.2.056.426.132.678.228.256.092.502.222.738.39.24.168.438.392.594.672.156.276.234.624.234 1.044 0 .436-.088.82-.264 1.152a2.44 2.44 0 0 1-.726.828c-.304.22-.656.386-1.056.498-.4.112-.822.168-1.266.168Zm7.033-.006c-.448 0-.824-.072-1.128-.216a2.133 2.133 0 0 1-.744-.564 2.705 2.705 0 0 1-.432-.768 3.942 3.942 0 0 1-.204-.81 5.229 5.229 0 0 1-.054-.696v-3.6h1.272v3.186c0 .252.02.512.06.78.044.264.124.51.24.738.12.228.286.412.498.552.216.14.496.21.84.21.224 0 .436-.036.636-.108.2-.076.374-.196.522-.36.152-.164.27-.38.354-.648a3.16 3.16 0 0 0 .132-.978l.78.294c0 .588-.11 1.108-.33 1.56-.22.448-.536.798-.948 1.05-.412.252-.91.378-1.494.378Zm2.142-.174v-1.872h-.15v-4.608h1.266V177h-1.116Zm7.346 0v-3.186c0-.252-.022-.51-.066-.774a2.32 2.32 0 0 0-.24-.744 1.408 1.408 0 0 0-.498-.552c-.212-.14-.49-.21-.834-.21-.224 0-.436.038-.636.114-.2.072-.376.19-.528.354-.148.164-.266.38-.354.648a3.3 3.3 0 0 0-.126.978l-.78-.294c0-.588.11-1.106.33-1.554a2.48 2.48 0 0 1 .948-1.056c.412-.252.91-.378 1.494-.378.448 0 .824.072 1.128.216.304.144.55.334.738.57.192.232.338.486.438.762.1.276.168.546.204.81.036.264.054.496.054.696v3.6h-1.272Zm-4.554 0v-6.48h1.122v1.872h.15V177h-1.272Z"/>
  <rect width="40" height="24" x="228" fill="#222B48" rx="6"/>
  <path fill="#222B48" d="M248.68 27.75a.5.5 0 0 1-.866 0l-3.32-5.75H252l-3.32 5.75Z"/>
  <path fill="#fff" d="M238.396 17.18c-.444 0-.858-.092-1.242-.276a2.966 2.966 0 0 1-.978-.756 2.969 2.969 0 0 1-.576-1.116l1.026-.276c.072.284.2.53.384.738.184.204.398.364.642.48.248.112.506.168.774.168.352 0 .668-.084.948-.252.284-.172.508-.398.672-.678.164-.284.246-.594.246-.93 0-.348-.086-.662-.258-.942a1.851 1.851 0 0 0-1.608-.918c-.38 0-.706.08-.978.24-.268.156-.48.348-.636.576l-.948-.36.264-4.518h4.638v1.014h-4.122l.474-.444-.222 3.618-.234-.306c.24-.256.526-.454.858-.594.336-.14.678-.21 1.026-.21a2.764 2.764 0 0 1 2.448 1.398c.248.428.372.91.372 1.446 0 .532-.136 1.018-.408 1.458a3.104 3.104 0 0 1-1.086 1.05c-.448.26-.94.39-1.476.39Zm7.321 0c-.56 0-1.06-.126-1.5-.378a2.87 2.87 0 0 1-1.038-1.038 2.964 2.964 0 0 1-.378-1.5v-3.168c0-.56.126-1.06.378-1.5a2.81 2.81 0 0 1 1.038-1.038c.44-.252.94-.378 1.5-.378s1.06.126 1.5.378c.44.252.786.598 1.038 1.038.252.44.378.94.378 1.5v3.168c0 .56-.126 1.06-.378 1.5a2.81 2.81 0 0 1-1.038 1.038c-.44.252-.94.378-1.5.378Zm0-1.026c.34 0 .648-.082.924-.246.276-.164.496-.384.66-.66.164-.28.246-.588.246-.924V11.03c0-.34-.082-.648-.246-.924a1.863 1.863 0 0 0-.66-.66 1.774 1.774 0 0 0-.924-.246c-.336 0-.644.082-.924.246a1.863 1.863 0 0 0-.66.66 1.774 1.774 0 0 0-.246.924v3.294c0 .336.082.644.246.924.164.276.384.496.66.66.28.164.588.246.924.246Zm5.556.846-.72-.72 7.932-7.92.72.72-7.932 7.92Zm6.132.18a2.11 2.11 0 0 1-1.086-.288 2.275 2.275 0 0 1-.78-.78 2.088 2.088 0 0 1-.294-1.092c0-.392.1-.752.3-1.08.2-.328.464-.59.792-.786a2.045 2.045 0 0 1 1.068-.294c.396 0 .758.098 1.086.294.328.192.588.452.78.78.196.324.294.686.294 1.086s-.098.764-.294 1.092a2.208 2.208 0 0 1-.78.78 2.11 2.11 0 0 1-1.086.288Zm0-.942a1.243 1.243 0 0 0 1.218-1.218c0-.22-.056-.422-.168-.606a1.183 1.183 0 0 0-.444-.444 1.143 1.143 0 0 0-.606-.168 1.243 1.243 0 0 0-1.218 1.218c0 .22.056.422.168.606.112.184.26.332.444.444.184.112.386.168.606.168Zm-5.052-3.738a2.11 2.11 0 0 1-1.086-.288 2.258 2.258 0 0 1-.786-.78 2.122 2.122 0 0 1-.288-1.092c0-.392.1-.752.3-1.08.2-.328.464-.59.792-.786a2.045 2.045 0 0 1 1.068-.294c.396 0 .756.098 1.08.294.328.192.59.452.786.78.196.324.294.686.294 1.086s-.098.764-.294 1.092a2.258 2.258 0 0 1-.786.78 2.079 2.079 0 0 1-1.08.288Zm0-.942a1.243 1.243 0 0 0 1.218-1.218c0-.22-.056-.422-.168-.606a1.183 1.183 0 0 0-.444-.444 1.143 1.143 0 0 0-.606-.168 1.243 1.243 0 0 0-1.218 1.218c0 .22.056.422.168.606.112.184.26.332.444.444.184.112.386.168.606.168Z"/>
  <rect width="34" height="114" x="231" y="40.5" fill="#FF844B" rx="4"/>
  <path fill="#9D9D9D" d="M241.34 177.5v-8.64h5.118v1.254h-3.864v2.436h3.144v1.26h-3.144v3.69h-1.254Zm6.199 0v-6.48h1.116v1.572l-.156-.204a2.38 2.38 0 0 1 .312-.57c.128-.176.276-.32.444-.432.164-.12.346-.212.546-.276.204-.068.412-.108.624-.12.212-.016.416-.006.612.03v1.176a2.032 2.032 0 0 0-.708-.048 1.55 1.55 0 0 0-.708.246 1.59 1.59 0 0 0-.486.48 2.04 2.04 0 0 0-.252.63c-.052.228-.078.47-.078.726v3.27h-1.266Zm4.761-7.542v-1.218h1.254v1.218H252.3Zm0 7.542v-6.48h1.254v6.48H252.3Z"/>
</svg>
