<svg xmlns="http://www.w3.org/2000/svg" width="152" height="152" fill="none" viewBox="0 0 152 152">
  <circle cx="76" cy="76" r="50" fill="#F8F5FC"/>
  <path fill="#9DACC1" d="M48.634 68.21c-.723 0-1.377-.124-1.96-.371a3.76 3.76 0 0 1-1.435-1.071 3.601 3.601 0 0 1-.728-1.659l1.526-.231c.154.616.476 1.097.966 1.442.49.34 1.062.511 1.715.511.406 0 .78-.063 1.12-.189a2 2 0 0 0 .819-.553c.21-.243.315-.532.315-.868a1.13 1.13 0 0 0-.357-.847 1.402 1.402 0 0 0-.399-.273 2.992 2.992 0 0 0-.511-.203l-2.583-.763a6.238 6.238 0 0 1-.77-.287 3.038 3.038 0 0 1-.721-.469 2.299 2.299 0 0 1-.525-.721c-.135-.29-.203-.64-.203-1.05 0-.62.159-1.146.476-1.575.322-.434.756-.76 1.302-.98.546-.224 1.157-.336 1.834-.336.681.01 1.29.13 1.827.364.541.233.99.57 1.344 1.008.36.434.607.961.742 1.582l-1.568.266a2.058 2.058 0 0 0-.448-.973 2.244 2.244 0 0 0-.84-.63 2.674 2.674 0 0 0-1.078-.231 2.637 2.637 0 0 0-1.029.168 1.835 1.835 0 0 0-.742.511 1.15 1.15 0 0 0-.273.756c0 .28.082.506.245.679.163.173.364.31.602.413.243.098.483.18.721.245l1.862.525c.233.065.497.154.791.266.299.107.586.259.861.455.28.196.511.457.693.784.182.322.273.728.273 1.218 0 .509-.103.957-.308 1.344a2.846 2.846 0 0 1-.847.966c-.355.257-.765.45-1.232.581-.467.13-.959.196-1.477.196Zm9.682-.21a6.266 6.266 0 0 1-1.4.119 3.169 3.169 0 0 1-1.225-.266 1.67 1.67 0 0 1-.812-.77 2.251 2.251 0 0 1-.266-.952c-.01-.327-.014-.695-.014-1.106V58.34h1.47v6.615c0 .303.002.567.007.791.01.224.058.413.147.567.168.29.434.455.798.497.368.037.8.021 1.295-.049V68Zm-5.166-6.384V60.44h5.166v1.176H53.15ZM59.91 68v-7.56h1.302v1.834l-.182-.238c.093-.243.214-.464.364-.665a2.04 2.04 0 0 1 .518-.504c.191-.14.403-.247.637-.322.238-.08.48-.126.728-.14.247-.019.485-.007.714.035v1.372a2.372 2.372 0 0 0-.826-.056 1.808 1.808 0 0 0-.826.287c-.238.154-.427.34-.567.56a2.38 2.38 0 0 0-.294.735 3.78 3.78 0 0 0-.091.847V68H59.91Zm8.63.21c-.751 0-1.412-.163-1.981-.49a3.485 3.485 0 0 1-1.323-1.379c-.313-.593-.469-1.279-.469-2.058 0-.826.154-1.542.462-2.149a3.423 3.423 0 0 1 1.302-1.407c.555-.331 1.202-.497 1.939-.497.77 0 1.426.18 1.967.539.541.355.945.861 1.211 1.519.27.658.378 1.44.322 2.345h-1.463v-.532c-.01-.877-.177-1.526-.504-1.946-.322-.42-.814-.63-1.477-.63-.733 0-1.283.231-1.652.693-.369.462-.553 1.13-.553 2.002 0 .83.184 1.475.553 1.932.369.453.9.679 1.596.679.457 0 .852-.103 1.183-.308.336-.21.597-.509.784-.896l1.435.455a3.407 3.407 0 0 1-1.337 1.575 3.722 3.722 0 0 1-1.995.553Zm-2.695-3.577v-1.141h5.397v1.141h-5.397ZM77.867 68a6.265 6.265 0 0 1-1.4.119 3.17 3.17 0 0 1-1.225-.266 1.67 1.67 0 0 1-.813-.77 2.252 2.252 0 0 1-.266-.952 39.23 39.23 0 0 1-.013-1.106V58.34h1.47v6.615c0 .303.002.567.006.791.01.224.059.413.147.567.169.29.434.455.799.497.368.037.8.021 1.294-.049V68ZM72.7 61.616V60.44h5.166v1.176H72.7ZM84.767 68v-3.717a5.42 5.42 0 0 0-.078-.903 2.707 2.707 0 0 0-.28-.868 1.643 1.643 0 0 0-.58-.644c-.248-.163-.572-.245-.973-.245a2.07 2.07 0 0 0-.742.133 1.546 1.546 0 0 0-.617.413 2.08 2.08 0 0 0-.412.756c-.098.313-.147.693-.147 1.141l-.91-.343c0-.686.128-1.29.384-1.813a2.892 2.892 0 0 1 1.106-1.232c.481-.294 1.062-.441 1.743-.441.523 0 .962.084 1.317.252.354.168.641.39.86.665.224.27.395.567.511.889.117.322.197.637.239.945a6.1 6.1 0 0 1 .063.812V68h-1.485Zm-5.313 0V57.92h1.309v5.439h.174V68h-1.483Zm8.76-8.799V57.78h1.463v1.421h-1.463Zm0 8.799v-7.56h1.463V68h-1.463Zm8.87 0v-3.717c0-.294-.025-.595-.076-.903a2.705 2.705 0 0 0-.28-.868 1.642 1.642 0 0 0-.581-.644c-.248-.163-.572-.245-.973-.245a2.07 2.07 0 0 0-.742.133 1.547 1.547 0 0 0-.616.413c-.173.191-.31.443-.413.756-.098.313-.147.693-.147 1.141l-.91-.343c0-.686.128-1.29.385-1.813a2.894 2.894 0 0 1 1.106-1.232c.48-.294 1.061-.441 1.743-.441.523 0 .961.084 1.316.252.355.168.641.39.86.665.225.27.395.567.512.889.117.322.196.637.238.945a6.1 6.1 0 0 1 .063.812V68h-1.484Zm-5.312 0v-7.56h1.309v2.184h.175V68h-1.484Zm11.735 3.57c-.406 0-.8-.063-1.183-.189a3.385 3.385 0 0 1-1.036-.56 3.025 3.025 0 0 1-.777-.903l1.351-.686c.163.322.397.558.7.707.303.15.623.224.959.224.415 0 .77-.075 1.064-.224a1.44 1.44 0 0 0 .665-.658c.154-.294.229-.658.224-1.092v-2.114h.175V60.44h1.295v7.763c0 .2-.007.392-.021.574-.014.182-.04.364-.077.546-.107.509-.313.929-.616 1.26a2.723 2.723 0 0 1-1.148.742 4.71 4.71 0 0 1-1.575.245Zm-.112-3.36c-.705 0-1.314-.175-1.827-.525a3.462 3.462 0 0 1-1.183-1.428c-.275-.607-.413-1.288-.413-2.044 0-.76.14-1.44.42-2.037a3.397 3.397 0 0 1 1.19-1.421c.518-.35 1.132-.525 1.841-.525.714 0 1.314.175 1.799.525.49.345.859.819 1.106 1.421.252.602.378 1.281.378 2.037s-.126 1.435-.378 2.037a3.3 3.3 0 0 1-1.113 1.435c-.49.35-1.097.525-1.82.525Zm.203-1.323c.481 0 .873-.114 1.176-.343.303-.229.525-.544.665-.945a4.2 4.2 0 0 0 .21-1.386c0-.523-.072-.985-.217-1.386-.14-.401-.359-.714-.658-.938-.294-.224-.67-.336-1.127-.336-.485 0-.884.119-1.197.357a2.132 2.132 0 0 0-.7.959 3.84 3.84 0 0 0-.224 1.344c0 .5.075.952.224 1.358.154.401.383.721.686.959.308.238.695.357 1.162.357Z"/>
  <path fill="#191A1E" d="M55.38 95v-2.38H49v-2.25l4.61-9.77h2.75l-4.61 9.77h3.63v-3.75h2.44v3.75h1.35v2.25h-1.35V95h-2.44Zm11.368.3c-1.02 0-1.92-.217-2.7-.65a4.733 4.733 0 0 1-1.83-1.83c-.433-.78-.65-1.68-.65-2.7v-4.64c0-1.02.217-1.92.65-2.7a4.664 4.664 0 0 1 1.83-1.82c.78-.44 1.68-.66 2.7-.66 1.02 0 1.917.22 2.69.66.78.433 1.39 1.04 1.83 1.82.44.78.66 1.68.66 2.7v4.64c0 1.02-.22 1.92-.66 2.7-.44.78-1.05 1.39-1.83 1.83-.773.433-1.67.65-2.69.65Zm0-2.29c.507 0 .967-.12 1.38-.36a2.76 2.76 0 0 0 .98-.98c.24-.413.36-.873.36-1.38V85.3c0-.513-.12-.973-.36-1.38a2.658 2.658 0 0 0-.98-.98 2.642 2.642 0 0 0-1.38-.37c-.507 0-.967.123-1.38.37-.413.24-.74.567-.98.98-.24.407-.36.867-.36 1.38v4.99c0 .507.12.967.36 1.38.24.407.567.733.98.98.413.24.873.36 1.38.36ZM82.202 95v-5.2c0-.34-.023-.717-.07-1.13a3.902 3.902 0 0 0-.33-1.19 2.256 2.256 0 0 0-.76-.95c-.333-.247-.787-.37-1.36-.37-.307 0-.61.05-.91.15-.3.1-.573.273-.82.52-.24.24-.433.573-.58 1-.147.42-.22.96-.22 1.62l-1.43-.61c0-.92.177-1.753.53-2.5.36-.747.887-1.34 1.58-1.78.693-.447 1.547-.67 2.56-.67.8 0 1.46.133 1.98.4s.933.607 1.24 1.02c.307.413.533.853.68 1.32.147.467.24.91.28 1.33.047.413.07.75.07 1.01V95h-2.44Zm-7.49 0V80.6h2.15v7.58h.29V95h-2.44Zm12.54 0V84.2h2.13v2.63l-.26-.34c.133-.36.31-.687.53-.98.226-.3.496-.547.81-.74.266-.18.56-.32.88-.42.326-.107.66-.17 1-.19.34-.027.67-.013.99.04v2.25a3.093 3.093 0 0 0-1.11-.09c-.414.033-.787.15-1.12.35-.334.18-.607.41-.82.69-.207.28-.36.6-.46.96-.1.353-.15.737-.15 1.15V95h-2.42Zm11.767.3c-1.333 0-2.416-.3-3.25-.9-.833-.6-1.34-1.443-1.52-2.53l2.46-.38c.127.533.407.953.84 1.26.434.307.98.46 1.64.46.58 0 1.027-.113 1.34-.34.32-.233.48-.55.48-.95 0-.247-.06-.443-.18-.59-.113-.153-.366-.3-.76-.44-.393-.14-.996-.317-1.81-.53-.906-.24-1.626-.497-2.16-.77-.533-.28-.916-.61-1.15-.99-.233-.38-.35-.84-.35-1.38 0-.673.177-1.26.53-1.76.354-.5.847-.883 1.48-1.15.634-.273 1.38-.41 2.24-.41.84 0 1.584.13 2.23.39.654.26 1.18.63 1.58 1.11.4.48.647 1.043.74 1.69l-2.46.44a1.55 1.55 0 0 0-.63-1.09c-.353-.267-.826-.417-1.42-.45-.566-.033-1.023.053-1.37.26-.346.2-.52.483-.52.85 0 .207.07.383.21.53.14.147.42.293.84.44.427.147 1.06.327 1.9.54.86.22 1.547.473 2.06.76.52.28.894.617 1.12 1.01.234.393.35.87.35 1.43 0 1.087-.396 1.94-1.19 2.56-.786.62-1.876.93-3.27.93Z"/>
  <path stroke="#8676FE" stroke-width="21" d="M141 75.845c0 12.33-3.49 24.406-10.065 34.826a65.048 65.048 0 0 1-27.077 24.041 64.858 64.858 0 0 1-35.704 5.812 64.927 64.927 0 0 1-33.274-14.219A65.157 65.157 0 0 1 14.34 96.46a65.304 65.304 0 0 1-1.446-36.23 65.19 65.19 0 0 1 18.098-31.394A64.948 64.948 0 0 1 63.027 12"/>
  <circle cx="76" cy="76" r="65" stroke="#1AB0B0" stroke-width="21"/>
  <path stroke="#F85C7F" stroke-width="21" d="M122 121.962a65.032 65.032 0 0 1-70.86 14.09 65.021 65.021 0 0 1-29.182-23.94A64.984 64.984 0 0 1 11 76"/>
  <path stroke="#FF844B" stroke-width="21" d="M141 76a64.89 64.89 0 0 1-6.718 28.749 65.03 65.03 0 0 1-18.767 22.819 65.213 65.213 0 0 1-26.947 12.183A65.27 65.27 0 0 1 59 138.785"/>
</svg>
