<svg xmlns="http://www.w3.org/2000/svg" width="105" height="105" fill="none" viewBox="0 0 105 105">
  <path fill="#fff" fill-opacity=".1" d="M105 52.5a52.5 52.5 0 1 0-105 0h16.392a36.107 36.107 0 1 1 72.216 0H105Z"/>
  <path fill="#fff" fill-opacity=".3" d="M86.565 52.5a34.065 34.065 0 0 0-68.13 0h.517a33.55 33.55 0 0 1 67.097 0h.516Z"/>
  <path fill="#fff" d="M77.71 6.45A52.5 52.5 0 0 0 0 52.5h16.392A36.109 36.109 0 0 1 69.84 20.828l7.87-14.379Z"/>
  <circle cx="51.963" cy="51.254" r="4.008" fill="#fff" transform="rotate(30 51.963 51.254)"/>
  <path fill="#000" d="M65.344 27.709a.185.185 0 0 1 .32.184L54.282 51.675a2.226 2.226 0 1 1-3.843-2.219l14.905-21.748Z"/>
  <circle cx="52.364" cy="50.559" r=".802" fill="#fff" transform="rotate(30 52.364 50.56)"/>
</svg>
