<svg xmlns="http://www.w3.org/2000/svg" width="149" height="50" fill="none" viewBox="0 0 149 50">
  <path fill="url(#a)" d="m22.5 34-1.646 1.136a2 2 0 0 0 3.13.204L22.5 34ZM51.4 2l1.865-.722a2 2 0 0 0-3.35-.618L51.4 2ZM69 47.5l-1.865.721a2 2 0 0 0 3.584.302L69 47.5ZM92.5 8l1.793-.885a2 2 0 0 0-3.512-.138L92.5 8ZM112 47.5l-1.793.885a2 2 0 0 0 3.735-.407L112 47.5Zm8-32.5 1.088-1.678a2.001 2.001 0 0 0-3.03 1.2L120 15Zm25.912 19.178a2 2 0 1 0 2.176-3.356l-2.176 3.356ZM.854 6.135l20 29 3.292-2.27-20-29-3.292 2.27Zm23.13 29.206 28.9-32L49.916.66l-28.9 32 2.968 2.68Zm25.55-32.62 17.6 45.5 3.731-1.442-17.6-45.5-3.73 1.443ZM70.72 48.524l23.5-39.5-3.438-2.046-23.5 39.5 3.438 2.046ZM90.707 8.885l19.5 39.5 3.586-1.77-19.5-39.5-3.586 1.77Zm23.235 39.093 8-32.5-3.884-.956-8 32.5 3.884.956Zm4.97-31.3 27 17.5 2.176-3.356-27-17.5-2.176 3.356Z"/>
  <defs>
    <linearGradient id="a" x1="-17" x2="254" y1="0" y2="48" gradientUnits="userSpaceOnUse">
      <stop stop-color="#fff"/>
      <stop offset="1" stop-color="#fff" stop-opacity="0"/>
    </linearGradient>
  </defs>
</svg>
