<svg xmlns="http://www.w3.org/2000/svg" width="122" height="93" fill="none" viewBox="0 0 122 93">
  <path fill="#9DACC1" fill-opacity=".4" fill-rule="evenodd" d="M61 16a.851.851 0 0 1-.855-.831l-.257-14.026A1.117 1.117 0 0 1 61 0c.626 0 1.123.517 1.112 1.143l-.258 14.026A.851.851 0 0 1 61 16Zm-3.403-.709a.847.847 0 0 1-.77.9.844.844 0 0 1-.92-.743l-1.55-13.951c-.069-.62.376-1.18.998-1.237a1.115 1.115 0 0 1 1.21 1.033l1.032 13.998Zm8.496.157a.844.844 0 0 1-.92.744.847.847 0 0 1-.77-.9l1.032-14c.046-.622.59-1.09 1.21-1.032.622.057 1.067.617.998 1.237l-1.55 13.95Zm-12.708.353a.845.845 0 0 1-.682.966.843.843 0 0 1-.984-.654L48.876 2.367a1.113 1.113 0 0 1 .88-1.326 1.116 1.116 0 0 1 1.302.917l2.327 13.843Zm16.896.312a.843.843 0 0 1-.984.654.845.845 0 0 1-.682-.966l2.327-13.843a1.116 1.116 0 0 1 1.303-.917c.614.115 1.005.714.879 1.326l-2.843 13.746Zm-21.038.585a.845.845 0 0 1-.589 1.026.844.844 0 0 1-1.04-.559l-4.12-13.418a1.115 1.115 0 0 1 .753-1.404 1.117 1.117 0 0 1 1.384.792l3.611 13.563Zm25.144.467a.844.844 0 0 1-1.041.56.845.845 0 0 1-.59-1.027l3.612-13.563a1.117 1.117 0 0 1 1.384-.792c.602.172.936.806.753 1.404l-4.118 13.418Zm-29.183.814a.846.846 0 0 1-.49 1.077.845.845 0 0 1-1.09-.46L38.267 5.625a1.116 1.116 0 0 1 .618-1.469 1.117 1.117 0 0 1 1.452.66l4.866 13.164Zm33.172.618a.845.845 0 0 1-1.09.46.846.846 0 0 1-.49-1.078l4.866-13.164c.217-.587.87-.888 1.452-.66.583.228.857.891.618 1.47l-5.356 12.972ZM41.3 19.633c.2.415.024.912-.387 1.119a.845.845 0 0 1-1.13-.356l-6.54-12.417a1.115 1.115 0 0 1 .477-1.52 1.116 1.116 0 0 1 1.506.521L41.3 19.633Zm40.918.763a.845.845 0 0 1-1.129.356.846.846 0 0 1-.387-1.12L86.775 6.98c.27-.563.947-.801 1.506-.52.558.28.77.966.478 1.52l-6.542 12.416Zm-44.654 1.249a.847.847 0 0 1-.282 1.151.846.846 0 0 1-1.158-.25L28.458 10.79a1.114 1.114 0 0 1 .335-1.556 1.115 1.115 0 0 1 1.546.379l7.224 12.033Zm48.314.901a.846.846 0 0 1-1.158.25.847.847 0 0 1-.282-1.151L91.66 9.612a1.115 1.115 0 0 1 1.546-.379c.53.332.676 1.033.335 1.556l-7.665 11.757Zm-51.85 1.45a.847.847 0 0 1-.175 1.174.847.847 0 0 1-1.177-.142l-8.717-11a1.113 1.113 0 0 1 .19-1.579 1.114 1.114 0 0 1 1.573.234l8.306 11.314Zm55.298 1.032a.847.847 0 0 1-1.178.142.847.847 0 0 1-.174-1.173l8.306-11.314a1.114 1.114 0 0 1 1.573-.234c.497.379.578 1.09.19 1.58l-8.717 10.999ZM30.72 26.667a.847.847 0 0 1-.066 1.184.847.847 0 0 1-1.186-.033l-9.691-10.152a1.113 1.113 0 0 1 .044-1.589 1.113 1.113 0 0 1 1.587.088l9.312 10.502Zm61.812 1.151a.848.848 0 0 1-1.186.034.847.847 0 0 1-.066-1.185l9.311-10.502a1.114 1.114 0 0 1 1.588-.088c.459.422.475 1.138.044 1.59l-9.691 10.151Zm-64.86 1.813a.848.848 0 0 1 .043 1.186.848.848 0 0 1-1.185.076l-10.581-9.221a1.113 1.113 0 0 1-.102-1.587 1.113 1.113 0 0 1 1.589-.058l10.235 9.604Zm67.798 1.262a.848.848 0 0 1-1.185-.076.848.848 0 0 1 .044-1.186l10.235-9.604a1.114 1.114 0 0 1 1.589.058 1.114 1.114 0 0 1-.102 1.587l-10.581 9.22Zm-70.563 1.97a.847.847 0 0 1 .152 1.176.848.848 0 0 1-1.173.185l-11.382-8.212a1.114 1.114 0 0 1-.246-1.571 1.113 1.113 0 0 1 1.576-.203l11.073 8.624Zm73.207 1.36a.848.848 0 0 1-1.173-.184.847.847 0 0 1 .152-1.177l11.073-8.624a1.112 1.112 0 0 1 1.576.203c.375.499.26 1.206-.246 1.57l-11.382 8.213Zm-75.663 2.11c.388.25.5.765.26 1.158a.848.848 0 0 1-1.151.291L9.472 30.65a1.114 1.114 0 0 1-.39-1.542 1.113 1.113 0 0 1 1.552-.347l11.817 7.572Zm77.989 1.45a.847.847 0 0 1-1.15-.292.847.847 0 0 1 .259-1.158l11.817-7.572a1.114 1.114 0 0 1 1.552.347 1.114 1.114 0 0 1-.39 1.542l-12.088 7.132Zm-80.115 2.231c.41.212.57.715.365 1.128a.848.848 0 0 1-1.119.396L6.878 35.55a1.115 1.115 0 0 1-.53-1.501c.277-.56.96-.775 1.514-.488l12.463 6.453Zm82.104 1.524a.848.848 0 0 1-1.119-.396.847.847 0 0 1 .365-1.128l12.463-6.453a1.114 1.114 0 0 1 1.514.488c.277.56.034 1.234-.53 1.5l-12.693 5.99Zm-83.881 2.335c.427.174.632.66.467 1.09a.848.848 0 0 1-1.077.498L4.747 40.669a1.116 1.116 0 0 1-.667-1.446c.224-.583.884-.86 1.463-.626l13.005 5.276Zm85.514 1.588a.847.847 0 0 1-1.077-.498.847.847 0 0 1 .467-1.09l13.005-5.276a1.114 1.114 0 0 1 1.463.626 1.116 1.116 0 0 1-.667 1.446l-13.191 4.792Zm-86.927 2.418c.441.133.69.598.565 1.041a.848.848 0 0 1-1.026.596L3.096 45.962a1.115 1.115 0 0 1-.797-1.378c.17-.6.8-.938 1.399-.757l13.437 4.052Zm88.191 1.637a.847.847 0 0 1-1.026-.596.846.846 0 0 1 .565-1.04l13.437-4.053c.598-.18 1.23.156 1.399.757a1.116 1.116 0 0 1-.797 1.378l-13.578 3.554ZM16.097 52a.846.846 0 0 1 .66.984.847.847 0 0 1-.968.687L1.94 51.383a1.114 1.114 0 0 1-.919-1.297 1.111 1.111 0 0 1 1.32-.882L16.097 52Zm90.114 1.671a.847.847 0 0 1-.967-.687.844.844 0 0 1 .659-.984l13.756-2.796a1.111 1.111 0 0 1 1.32.882 1.114 1.114 0 0 1-.919 1.297l-13.849 2.288Zm-90.77 2.53c.459.05.79.46.748.92a.85.85 0 0 1-.902.775l-14-1.015a1.113 1.113 0 0 1-1.032-1.206 1.11 1.11 0 0 1 1.232-.998l13.954 1.524Zm91.272 1.695a.85.85 0 0 1-.902-.775.846.846 0 0 1 .748-.92l13.954-1.524a1.11 1.11 0 0 1 1.232.998 1.112 1.112 0 0 1-1.032 1.207l-14 1.014ZM15.166 60.45a.854.854 0 0 1 .834.857c0 .44-.35.803-.79.81l-14.13.242A1.057 1.057 0 0 1 0 61.308c0-.624.516-1.121 1.14-1.11l14.026.253Zm90.834.857c0-.465.369-.849.834-.857l14.026-.253a1.114 1.114 0 0 1 1.14 1.11c0 .591-.488 1.062-1.08 1.052l-14.129-.241a.808.808 0 0 1-.791-.811Zm-90.684 3.238a.807.807 0 0 1 .855.74.805.805 0 0 1-.716.873L1.398 67.616a1.057 1.057 0 0 1-1.168-.955 1.06 1.06 0 0 1 .987-1.145l14.099-.97Zm91.229 1.613a.806.806 0 0 1-.716-.873.808.808 0 0 1 .855-.74l14.099.97a1.06 1.06 0 0 1 .987 1.145 1.057 1.057 0 0 1-1.168.955l-14.057-1.457Zm-.592 3.995a.803.803 0 0 1-.636-.93.805.805 0 0 1 .914-.661l13.962 2.19c.586.091.987.642.885 1.227a1.059 1.059 0 0 1-1.249.85l-13.876-2.675Zm-90.184-1.591a.806.806 0 0 1 .914.661.804.804 0 0 1-.636.93L2.17 72.832a1.058 1.058 0 0 1-1.249-.852 1.06 1.06 0 0 1 .885-1.227l13.962-2.19Zm89.246 5.517a.804.804 0 0 1-.552-.982.805.805 0 0 1 .968-.578l13.717 3.403c.576.142.927.727.774 1.3a1.058 1.058 0 0 1-1.318.74l-13.589-3.883Zm-88.446-1.56a.805.805 0 0 1 .968.578.803.803 0 0 1-.552.982L3.396 77.962a1.059 1.059 0 0 1-1.318-.74 1.06 1.06 0 0 1 .774-1.3L16.57 72.52Zm87.168 5.386a.803.803 0 0 1-.463-1.026.805.805 0 0 1 1.015-.49l13.365 4.593c.561.193.86.805.657 1.363a1.059 1.059 0 0 1-1.379.62l-13.195-5.06ZM17.711 76.39a.805.805 0 0 1 1.015.491.804.804 0 0 1-.463 1.026l-13.195 5.06a1.059 1.059 0 0 1-1.38-.62 1.06 1.06 0 0 1 .658-1.363l13.365-4.594Zm84.417 5.218a.805.805 0 0 1-.371-1.064.805.805 0 0 1 1.054-.4l12.91 5.75c.542.241.786.877.536 1.415a1.06 1.06 0 0 1-1.428.498l-12.701-6.199Zm-82.939-1.463a.805.805 0 0 1 1.054.4.804.804 0 0 1-.371 1.063l-12.7 6.199a1.06 1.06 0 0 1-1.429-.498 1.06 1.06 0 0 1 .536-1.415l12.91-5.75Zm1.802 3.611a.805.805 0 0 1 1.085.306c.22.38.099.867-.277 1.093L9.69 92.44a1.059 1.059 0 0 1-1.465-.37 1.06 1.06 0 0 1 .41-1.457l12.357-6.858Zm79.21 1.399a.804.804 0 0 1-.277-1.093.805.805 0 0 1 1.085-.306l12.357 6.858c.519.288.706.943.41 1.456a1.06 1.06 0 0 1-1.466.371l-12.109-7.286Z" clip-rule="evenodd"/>
  <path fill="#FF7443" fill-rule="evenodd" d="M61 16a.851.851 0 0 1-.855-.831l-.257-14.026A1.117 1.117 0 0 1 61 0c.626 0 1.123.517 1.112 1.143l-.258 14.026A.851.851 0 0 1 61 16Zm-3.403-.709a.847.847 0 0 1-.77.9.844.844 0 0 1-.92-.743l-1.55-13.951c-.069-.62.376-1.18.998-1.237a1.115 1.115 0 0 1 1.21 1.033l1.032 13.998Zm8.496.157a.844.844 0 0 1-.92.744.847.847 0 0 1-.77-.9l1.032-14c.046-.622.59-1.09 1.21-1.032.622.057 1.067.617.998 1.237l-1.55 13.95Zm-12.708.353a.845.845 0 0 1-.682.966.843.843 0 0 1-.984-.654L48.876 2.367a1.113 1.113 0 0 1 .88-1.326 1.116 1.116 0 0 1 1.302.917l2.327 13.843Zm16.896.312a.843.843 0 0 1-.984.654.845.845 0 0 1-.682-.966l2.327-13.843a1.116 1.116 0 0 1 1.303-.917c.614.115 1.005.714.879 1.326l-2.843 13.746Zm-21.038.585a.845.845 0 0 1-.589 1.026.844.844 0 0 1-1.04-.559l-4.12-13.418a1.115 1.115 0 0 1 .753-1.404 1.117 1.117 0 0 1 1.384.792l3.611 13.563Zm25.144.467a.844.844 0 0 1-1.041.56.845.845 0 0 1-.59-1.027l3.612-13.563a1.117 1.117 0 0 1 1.384-.792c.602.172.936.806.753 1.404l-4.118 13.418Zm-29.183.814a.846.846 0 0 1-.49 1.077.845.845 0 0 1-1.09-.46L38.267 5.625a1.116 1.116 0 0 1 .618-1.469 1.117 1.117 0 0 1 1.452.66l4.866 13.164Zm33.172.618a.845.845 0 0 1-1.09.46.846.846 0 0 1-.49-1.078l4.866-13.164c.217-.587.87-.888 1.452-.66.583.228.857.891.618 1.47l-5.356 12.972ZM41.3 19.633c.2.415.024.912-.387 1.119a.845.845 0 0 1-1.13-.356l-6.54-12.417a1.115 1.115 0 0 1 .477-1.52 1.116 1.116 0 0 1 1.506.521L41.3 19.633Zm40.918.763a.845.845 0 0 1-1.129.356.846.846 0 0 1-.387-1.12L86.775 6.98c.27-.563.947-.801 1.506-.52.558.28.77.966.478 1.52l-6.542 12.416Zm-44.654 1.249a.847.847 0 0 1-.282 1.151.846.846 0 0 1-1.158-.25L28.458 10.79a1.114 1.114 0 0 1 .335-1.556 1.115 1.115 0 0 1 1.546.379l7.224 12.033Zm48.314.901a.846.846 0 0 1-1.158.25.847.847 0 0 1-.282-1.151L91.66 9.612a1.115 1.115 0 0 1 1.546-.379c.53.332.676 1.033.335 1.556l-7.665 11.757Zm-51.85 1.45a.847.847 0 0 1-.175 1.174.847.847 0 0 1-1.177-.142l-8.717-11a1.113 1.113 0 0 1 .19-1.579 1.114 1.114 0 0 1 1.573.234l8.306 11.314Zm55.298 1.032a.847.847 0 0 1-1.178.142.847.847 0 0 1-.174-1.173l8.306-11.314a1.114 1.114 0 0 1 1.573-.234c.497.379.578 1.09.19 1.58l-8.717 10.999ZM30.72 26.667a.847.847 0 0 1-.066 1.184.847.847 0 0 1-1.186-.033l-9.691-10.152a1.113 1.113 0 0 1 .044-1.589 1.113 1.113 0 0 1 1.587.088l9.312 10.502Zm61.812 1.151a.848.848 0 0 1-1.186.034.847.847 0 0 1-.066-1.185l9.311-10.502a1.114 1.114 0 0 1 1.588-.088c.459.422.475 1.138.044 1.59l-9.691 10.151Zm-64.86 1.813a.848.848 0 0 1 .043 1.186.848.848 0 0 1-1.185.076l-10.581-9.221a1.113 1.113 0 0 1-.102-1.587 1.113 1.113 0 0 1 1.589-.058l10.235 9.604Zm67.798 1.262a.848.848 0 0 1-1.185-.076.848.848 0 0 1 .044-1.186l10.235-9.604a1.114 1.114 0 0 1 1.589.058 1.114 1.114 0 0 1-.102 1.587l-10.581 9.22Zm-70.563 1.97a.847.847 0 0 1 .152 1.176.848.848 0 0 1-1.173.185l-11.382-8.212a1.114 1.114 0 0 1-.246-1.571 1.113 1.113 0 0 1 1.576-.203l11.073 8.624Zm73.207 1.36a.848.848 0 0 1-1.173-.184.847.847 0 0 1 .152-1.177l11.073-8.624a1.112 1.112 0 0 1 1.576.203c.375.499.26 1.206-.246 1.57l-11.382 8.213Zm-75.663 2.11c.388.25.5.765.26 1.158a.848.848 0 0 1-1.151.291L9.472 30.65a1.114 1.114 0 0 1-.39-1.542 1.113 1.113 0 0 1 1.552-.347l11.817 7.572Zm77.989 1.45a.847.847 0 0 1-1.15-.292.847.847 0 0 1 .259-1.158l11.817-7.572a1.114 1.114 0 0 1 1.552.347 1.114 1.114 0 0 1-.39 1.542l-12.088 7.132Zm-80.115 2.231c.41.212.57.715.365 1.128a.848.848 0 0 1-1.119.396L6.878 35.55a1.115 1.115 0 0 1-.53-1.501c.277-.56.96-.775 1.514-.488l12.463 6.453Zm82.104 1.524a.848.848 0 0 1-1.119-.396.847.847 0 0 1 .365-1.128l12.463-6.453a1.114 1.114 0 0 1 1.514.488c.277.56.034 1.234-.53 1.5l-12.693 5.99Zm-83.881 2.335c.427.174.632.66.467 1.09a.848.848 0 0 1-1.077.498L4.747 40.669a1.116 1.116 0 0 1-.667-1.446c.224-.583.884-.86 1.463-.626l13.005 5.276Zm85.514 1.588a.847.847 0 0 1-1.077-.498.847.847 0 0 1 .467-1.09l13.005-5.276a1.114 1.114 0 0 1 1.463.626 1.116 1.116 0 0 1-.667 1.446l-13.191 4.792Zm-86.927 2.418c.441.133.69.598.565 1.041a.848.848 0 0 1-1.026.596L3.096 45.962a1.115 1.115 0 0 1-.797-1.378c.17-.6.8-.938 1.399-.757l13.437 4.052Zm88.191 1.637a.847.847 0 0 1-1.026-.596.846.846 0 0 1 .565-1.04l13.437-4.053c.598-.18 1.23.156 1.399.757a1.116 1.116 0 0 1-.797 1.378l-13.578 3.554ZM16.097 52a.846.846 0 0 1 .66.984.847.847 0 0 1-.968.687L1.94 51.383a1.114 1.114 0 0 1-.919-1.297 1.111 1.111 0 0 1 1.32-.882L16.097 52Zm90.114 1.671a.847.847 0 0 1-.967-.687.844.844 0 0 1 .659-.984l13.756-2.796a1.111 1.111 0 0 1 1.32.882 1.114 1.114 0 0 1-.919 1.297l-13.849 2.288Zm-90.77 2.53c.459.05.79.46.748.92a.85.85 0 0 1-.902.775l-14-1.015a1.113 1.113 0 0 1-1.032-1.206 1.11 1.11 0 0 1 1.232-.998l13.954 1.524Zm91.272 1.695a.85.85 0 0 1-.902-.775.846.846 0 0 1 .748-.92l13.954-1.524a1.11 1.11 0 0 1 1.232.998 1.112 1.112 0 0 1-1.032 1.207l-14 1.014ZM15.166 60.45a.854.854 0 0 1 .834.857c0 .44-.35.803-.79.81l-14.13.242A1.057 1.057 0 0 1 0 61.308c0-.624.516-1.121 1.14-1.11l14.026.253Zm.15 4.095a.807.807 0 0 1 .855.74.805.805 0 0 1-.716.873L1.398 67.616a1.057 1.057 0 0 1-1.168-.955 1.06 1.06 0 0 1 .987-1.145l14.099-.97Zm.453 4.017a.806.806 0 0 1 .914.661.804.804 0 0 1-.636.93L2.17 72.832a1.058 1.058 0 0 1-1.249-.852 1.06 1.06 0 0 1 .885-1.227l13.962-2.19Zm.8 3.957a.805.805 0 0 1 .968.578.803.803 0 0 1-.552.982L3.396 77.962a1.059 1.059 0 0 1-1.318-.74 1.06 1.06 0 0 1 .774-1.3L16.57 72.52Zm1.142 3.87a.805.805 0 0 1 1.015.49.803.803 0 0 1-.463 1.026l-13.195 5.06a1.059 1.059 0 0 1-1.38-.62 1.06 1.06 0 0 1 .658-1.363l13.365-4.594Zm1.478 3.754a.805.805 0 0 1 1.054.4.804.804 0 0 1-.371 1.063l-12.7 6.199a1.06 1.06 0 0 1-1.429-.498 1.06 1.06 0 0 1 .536-1.415l12.91-5.75Zm1.802 3.611a.805.805 0 0 1 1.085.306c.22.38.099.867-.277 1.093L9.69 92.44a1.059 1.059 0 0 1-1.465-.37 1.06 1.06 0 0 1 .41-1.457l12.357-6.858Z" clip-rule="evenodd"/>
  <path fill="#191C32" d="M46.01 62.3c-.94 0-1.773-.187-2.5-.56a4.317 4.317 0 0 1-1.7-1.58c-.407-.673-.61-1.453-.61-2.34 0-.827.193-1.583.58-2.27.387-.687.963-1.227 1.73-1.62l-.04.72c-.613-.38-1.087-.853-1.42-1.42a3.809 3.809 0 0 1-.49-1.92c0-.82.19-1.53.57-2.13.38-.6.903-1.063 1.57-1.39.673-.327 1.443-.49 2.31-.49s1.633.163 2.3.49c.667.327 1.19.79 1.57 1.39.38.6.57 1.31.57 2.13 0 .707-.157 1.343-.47 1.91-.313.567-.793 1.043-1.44 1.43l-.03-.7c.76.373 1.337.907 1.73 1.6a4.49 4.49 0 0 1 .59 2.27c0 .887-.207 1.667-.62 2.34a4.3 4.3 0 0 1-1.71 1.58c-.727.373-1.557.56-2.49.56Zm0-1.99c.773 0 1.4-.21 1.88-.63.48-.427.72-1.047.72-1.86 0-.813-.24-1.433-.72-1.86-.473-.433-1.1-.65-1.88-.65-.78 0-1.41.217-1.89.65-.473.427-.71 1.047-.71 1.86 0 .813.24 1.433.72 1.86.48.42 1.107.63 1.88.63Zm0-7c.66 0 1.193-.163 1.6-.49.413-.333.62-.837.62-1.51s-.207-1.177-.62-1.51c-.407-.34-.94-.51-1.6-.51-.66 0-1.197.17-1.61.51-.413.333-.62.837-.62 1.51s.207 1.177.62 1.51c.413.327.95.49 1.61.49Zm12.441 8.99c-.98 0-1.846-.213-2.6-.64a4.752 4.752 0 0 1-1.78-1.78c-.426-.753-.64-1.62-.64-2.6v-4.96c0-.98.214-1.847.64-2.6a4.679 4.679 0 0 1 1.78-1.77c.754-.433 1.62-.65 2.6-.65s1.847.217 2.6.65a4.608 4.608 0 0 1 1.77 1.77c.434.753.65 1.62.65 2.6v4.96c0 .98-.216 1.847-.65 2.6a4.679 4.679 0 0 1-1.77 1.78c-.753.427-1.62.64-2.6.64Zm0-2a2.82 2.82 0 0 0 1.45-.38c.44-.26.79-.607 1.05-1.04.26-.44.39-.93.39-1.47v-5.24c0-.533-.13-1.017-.39-1.45-.26-.44-.61-.787-1.05-1.04a2.764 2.764 0 0 0-1.45-.39 2.88 2.88 0 0 0-2.5 1.43c-.26.433-.39.917-.39 1.45v5.24c0 .54.13 1.03.39 1.47.26.433.607.78 1.04 1.04.44.253.927.38 1.46.38Zm9.612 1.7-1.4-1.4 13.01-13 1.4 1.41L68.063 62Zm10.01.3c-.66 0-1.263-.16-1.81-.48a3.79 3.79 0 0 1-1.3-1.3 3.48 3.48 0 0 1-.49-1.82c0-.653.167-1.253.5-1.8a3.819 3.819 0 0 1 1.32-1.31 3.408 3.408 0 0 1 1.78-.49c.66 0 1.264.163 1.81.49.547.32.98.753 1.3 1.3.327.54.49 1.143.49 1.81s-.163 1.273-.49 1.82a3.68 3.68 0 0 1-1.3 1.3c-.546.32-1.15.48-1.81.48Zm0-1.81c.327 0 .624-.08.89-.24.274-.167.49-.387.65-.66.167-.273.25-.57.25-.89 0-.32-.083-.617-.25-.89a1.788 1.788 0 0 0-.65-.65 1.645 1.645 0 0 0-.89-.25c-.32 0-.616.083-.89.25-.266.16-.483.377-.65.65-.16.273-.24.57-.24.89 0 .32.08.617.24.89a2 2 0 0 0 .65.66c.274.16.57.24.89.24Zm-8.41-5.99c-.66 0-1.263-.16-1.81-.48a3.762 3.762 0 0 1-1.31-1.3 3.536 3.536 0 0 1-.48-1.82c0-.653.167-1.253.5-1.8a3.819 3.819 0 0 1 1.32-1.31 3.408 3.408 0 0 1 1.78-.49c.66 0 1.26.163 1.8.49.547.32.984.753 1.31 1.3.327.54.49 1.143.49 1.81s-.163 1.273-.49 1.82c-.326.54-.763.973-1.31 1.3-.54.32-1.14.48-1.8.48Zm0-1.81c.32 0 .617-.08.89-.24.274-.167.49-.387.65-.66.167-.273.25-.57.25-.89 0-.32-.083-.617-.25-.89a1.788 1.788 0 0 0-.65-.65 1.678 1.678 0 0 0-.89-.25c-.32 0-.616.083-.89.25-.266.16-.483.377-.65.65-.166.273-.25.57-.25.89 0 .32.084.617.25.89a2 2 0 0 0 .65.66c.267.16.564.24.89.24Z"/>
</svg>
