<svg xmlns="http://www.w3.org/2000/svg" width="183" height="136" fill="none" viewBox="0 0 183 136">
  <path fill="#0A0A0A" d="M26.061 15.21c-1.003 0-1.85-.222-2.541-.665a4.215 4.215 0 0 1-1.568-1.855c-.355-.789-.532-1.699-.532-2.73s.177-1.941.532-2.73c.355-.789.877-1.405 1.568-1.848.69-.448 1.538-.672 2.541-.672 1.171 0 2.128.301 2.87.903.742.597 1.25 1.4 1.526 2.408l-1.05.273c-.215-.798-.6-1.43-1.155-1.897-.555-.467-1.286-.7-2.191-.7-.789 0-1.444.18-1.967.539-.523.36-.917.861-1.183 1.505-.261.64-.397 1.379-.406 2.219-.005.84.124 1.58.385 2.219.266.64.663 1.141 1.19 1.505.532.36 1.192.539 1.981.539.905 0 1.636-.233 2.191-.7.555-.471.94-1.104 1.155-1.897l1.05.273c-.275 1.008-.784 1.813-1.526 2.415-.742.597-1.699.896-2.87.896Zm8.103 0c-.569 0-1.047-.103-1.434-.308a2.088 2.088 0 0 1-.861-.819 2.235 2.235 0 0 1-.288-1.113c0-.41.082-.76.245-1.05.168-.294.395-.534.68-.721a3.41 3.41 0 0 1 1-.427c.383-.093.806-.175 1.267-.245.467-.075.922-.138 1.365-.189.449-.056.84-.11 1.177-.161l-.364.224c.014-.747-.131-1.3-.434-1.659-.304-.36-.831-.539-1.583-.539-.517 0-.956.117-1.316.35-.354.233-.604.602-.748 1.106l-1.001-.294c.172-.677.52-1.202 1.042-1.575.523-.373 1.202-.56 2.038-.56.69 0 1.276.13 1.757.392.485.257.828.63 1.028 1.12.094.22.154.464.182.735.029.27.043.546.043.826V15h-.918v-1.897l.267.112c-.257.649-.656 1.143-1.197 1.484-.542.34-1.19.511-1.947.511Zm.12-.889c.48 0 .9-.086 1.26-.259.359-.173.648-.408.867-.707.22-.303.362-.644.428-1.022.056-.243.086-.509.09-.798.005-.294.008-.513.008-.658l.392.203c-.35.047-.73.093-1.142.14-.405.047-.807.1-1.203.161-.392.06-.747.133-1.065.217-.214.06-.422.147-.622.259a1.426 1.426 0 0 0-.497.434 1.165 1.165 0 0 0-.19.679c0 .22.054.432.162.637.111.205.289.376.532.511.247.135.573.203.98.203ZM39.78 15V7.44h.924v1.82l-.182-.238c.084-.224.193-.43.329-.616a2.14 2.14 0 0 1 .44-.469c.197-.173.425-.303.687-.392.261-.093.525-.147.79-.161.267-.019.51 0 .729.056v.966a2.497 2.497 0 0 0-.903-.049 1.72 1.72 0 0 0-.903.392 1.878 1.878 0 0 0-.567.707 3 3 0 0 0-.252.868 6.577 6.577 0 0 0-.063.903V15h-1.03Zm7.841.21c-.705 0-1.307-.175-1.806-.525a3.406 3.406 0 0 1-1.148-1.435c-.266-.602-.399-1.281-.399-2.037 0-.751.13-1.428.392-2.03.266-.602.646-1.078 1.141-1.428.495-.35 1.087-.525 1.778-.525.71 0 1.307.173 1.792.518.485.345.852.819 1.099 1.421.252.597.378 1.279.378 2.044 0 .751-.124 1.43-.371 2.037-.247.602-.611 1.08-1.092 1.435-.48.35-1.069.525-1.764.525Zm.105-.959c.537 0 .98-.13 1.33-.392.35-.261.611-.62.784-1.078a4.45 4.45 0 0 0 .259-1.568c0-.593-.086-1.115-.259-1.568-.173-.457-.434-.814-.784-1.071-.345-.257-.782-.385-1.309-.385-.541 0-.99.133-1.344.399a2.36 2.36 0 0 0-.791 1.085c-.168.457-.252.97-.252 1.54 0 .574.086 1.092.259 1.554.177.457.441.819.791 1.085.35.266.789.399 1.316.399ZM50.1 15V9.309h-.112V4.92h1.036V15H50.1Zm3.028-8.995V4.85h1.029v1.155h-1.03Zm0 8.995V7.44h1.029V15h-1.03Zm6.284.21c-.75 0-1.393-.17-1.925-.511a3.325 3.325 0 0 1-1.225-1.414c-.284-.602-.427-1.293-.427-2.072 0-.793.145-1.489.434-2.086a3.29 3.29 0 0 1 1.232-1.393c.537-.336 1.174-.504 1.911-.504.756 0 1.4.17 1.932.511.537.336.945.805 1.225 1.407.285.597.427 1.286.427 2.065 0 .793-.142 1.491-.427 2.093a3.272 3.272 0 0 1-1.232 1.4c-.536.336-1.178.504-1.925.504Zm0-.987c.84 0 1.466-.278 1.876-.833.411-.56.616-1.286.616-2.177 0-.915-.207-1.643-.623-2.184-.41-.541-1.033-.812-1.869-.812-.564 0-1.03.128-1.4.385a2.283 2.283 0 0 0-.819 1.057c-.177.448-.266.966-.266 1.554 0 .91.21 1.64.63 2.191.42.546 1.039.819 1.855.819Z"/>
  <path fill="#9D9D9D" d="M146.745 15.196c-.499 0-.964-.091-1.393-.273a3.307 3.307 0 0 1-1.113-.784 3.19 3.19 0 0 1-.679-1.211l1.197-.343c.154.467.411.821.77 1.064a2.07 2.07 0 0 0 1.211.357c.411-.01.765-.103 1.064-.28.303-.182.537-.43.7-.742.168-.313.252-.674.252-1.085 0-.625-.187-1.132-.56-1.519-.373-.392-.863-.588-1.47-.588a2.325 2.325 0 0 0-1.043.266l-.602-.987 3.738-3.381.161.42h-5.019V4.92h5.943v1.197l-3.185 3.052-.014-.441c.667-.047 1.251.063 1.75.329a2.82 2.82 0 0 1 1.162 1.141c.28.495.42 1.062.42 1.701 0 .644-.145 1.213-.434 1.708a3.17 3.17 0 0 1-1.176 1.169c-.495.28-1.055.42-1.68.42Zm8.512.014c-.653 0-1.237-.147-1.75-.441a3.348 3.348 0 0 1-1.211-1.211c-.294-.513-.441-1.097-.441-1.75V8.112c0-.653.147-1.237.441-1.75a3.277 3.277 0 0 1 1.211-1.211c.513-.294 1.097-.441 1.75-.441s1.237.147 1.75.441c.513.294.917.698 1.211 1.211.294.513.441 1.097.441 1.75v3.696c0 .653-.147 1.237-.441 1.75a3.28 3.28 0 0 1-1.211 1.211c-.513.294-1.097.441-1.75.441Zm0-1.197a2.07 2.07 0 0 0 1.078-.287 2.17 2.17 0 0 0 .77-.77c.191-.327.287-.686.287-1.078V8.035c0-.397-.096-.756-.287-1.078a2.17 2.17 0 0 0-.77-.77 2.07 2.07 0 0 0-1.078-.287c-.392 0-.751.096-1.078.287a2.17 2.17 0 0 0-.77.77 2.073 2.073 0 0 0-.287 1.078v3.843c0 .392.096.751.287 1.078.191.322.448.579.77.77.327.191.686.287 1.078.287Zm13.547.987v-3.787c0-.36-.032-.705-.098-1.036a2.577 2.577 0 0 0-.329-.889 1.7 1.7 0 0 0-.63-.63c-.261-.154-.592-.231-.994-.231-.312 0-.597.054-.854.161a1.67 1.67 0 0 0-.651.476 2.316 2.316 0 0 0-.427.812 3.939 3.939 0 0 0-.147 1.141l-.819-.252c0-.733.131-1.36.392-1.883a2.86 2.86 0 0 1 1.113-1.211c.481-.285 1.046-.427 1.694-.427.49 0 .908.077 1.253.231.346.154.633.36.861.616.229.252.409.537.539.854.131.313.222.632.273.959.056.322.084.628.084.917V15h-1.26Zm-5.39 0V4.92h1.12v5.565h.14V15h-1.26Zm8.47 0V7.44h1.113v1.827l-.182-.238c.089-.233.203-.448.343-.644.145-.196.306-.357.483-.483.196-.159.418-.28.665-.364.248-.084.5-.133.756-.147.257-.019.497-.002.721.049v1.169a2.361 2.361 0 0 0-.861-.056 1.751 1.751 0 0 0-.868.343 1.884 1.884 0 0 0-.567.63c-.13.247-.221.516-.273.805a4.952 4.952 0 0 0-.077.875V15h-1.253Zm7.806.203c-.901 0-1.641-.196-2.219-.588-.574-.397-.927-.95-1.057-1.659l1.274-.203c.102.41.338.737.707.98.368.238.826.357 1.372.357.518 0 .924-.107 1.218-.322.294-.215.441-.506.441-.875 0-.215-.049-.387-.147-.518-.098-.135-.301-.261-.609-.378a14.568 14.568 0 0 0-1.379-.42c-.668-.177-1.193-.362-1.575-.553-.383-.191-.656-.413-.819-.665-.164-.252-.245-.558-.245-.917 0-.443.121-.83.364-1.162.242-.336.581-.595 1.015-.777.438-.182.947-.273 1.526-.273a4.1 4.1 0 0 1 1.54.273c.452.182.816.441 1.092.777.28.331.445.719.497 1.162l-1.274.231a1.376 1.376 0 0 0-.588-.959c-.327-.233-.749-.357-1.267-.371-.49-.019-.889.068-1.197.259-.304.191-.455.45-.455.777 0 .182.056.338.168.469.116.13.329.254.637.371.312.117.765.25 1.358.399.667.168 1.192.352 1.575.553.387.196.662.43.826.7.163.266.245.595.245.987 0 .728-.269 1.302-.805 1.722-.537.415-1.277.623-2.219.623Z"/>
  <rect width="8" height="8" y="6" fill="#1AB0B0" rx="4"/>
  <path stroke="#F9F9F9" d="M0 28.5h182"/>
  <path fill="#0A0A0A" d="M25.48 54.21c-.705 0-1.34-.117-1.904-.35a3.687 3.687 0 0 1-1.393-1.008 3.31 3.31 0 0 1-.714-1.547l1.05-.175a2.592 2.592 0 0 0 1.064 1.54c.541.369 1.188.553 1.939.553.495 0 .938-.077 1.33-.231.392-.159.7-.383.924-.672.224-.29.336-.632.336-1.029a1.45 1.45 0 0 0-.14-.665 1.342 1.342 0 0 0-.371-.462 2.288 2.288 0 0 0-.504-.301 3.97 3.97 0 0 0-.532-.203l-2.555-.763a4.652 4.652 0 0 1-.854-.336 3.01 3.01 0 0 1-.686-.497 2.13 2.13 0 0 1-.448-.686 2.343 2.343 0 0 1-.161-.896c0-.57.15-1.062.448-1.477a2.874 2.874 0 0 1 1.225-.959c.518-.224 1.108-.334 1.771-.329.672 0 1.272.119 1.799.357.532.238.97.579 1.316 1.022.345.439.574.959.686 1.561l-1.078.196a2.44 2.44 0 0 0-.483-1.141 2.466 2.466 0 0 0-.966-.742 3.118 3.118 0 0 0-1.281-.273c-.453 0-.856.077-1.211.231a2.07 2.07 0 0 0-.833.616 1.41 1.41 0 0 0-.308.896c0 .34.093.614.28.819.191.205.425.366.7.483.28.117.55.212.812.287l1.974.581c.205.056.446.138.721.245.28.103.55.252.812.448.266.191.485.443.658.756.173.313.259.71.259 1.19 0 .467-.093.884-.28 1.253a2.576 2.576 0 0 1-.777.931 3.553 3.553 0 0 1-1.169.574 4.97 4.97 0 0 1-1.456.203Zm9.243-.21a5.035 5.035 0 0 1-1.26.105 2.795 2.795 0 0 1-1.106-.266 1.596 1.596 0 0 1-.735-.742 2.18 2.18 0 0 1-.224-.847c-.01-.29-.014-.618-.014-.987V44.34h1.022v6.881c0 .317.002.583.007.798.01.21.058.397.147.56.168.313.434.5.798.56.369.06.824.047 1.365-.042V54Zm-4.956-6.678v-.882h4.956v.882h-4.956ZM36.212 54v-7.56h.924v1.82l-.182-.238a2.6 2.6 0 0 1 .33-.616 2.14 2.14 0 0 1 .44-.469c.196-.173.425-.303.686-.392.262-.093.525-.147.791-.161.266-.019.51 0 .728.056v.966a2.497 2.497 0 0 0-.903-.049 1.72 1.72 0 0 0-.903.392 1.878 1.878 0 0 0-.567.707 3 3 0 0 0-.252.868 6.577 6.577 0 0 0-.063.903V54h-1.029Zm8.108.21c-.738 0-1.377-.163-1.918-.49a3.326 3.326 0 0 1-1.253-1.379c-.299-.593-.448-1.288-.448-2.086 0-.826.147-1.54.44-2.142a3.278 3.278 0 0 1 1.24-1.393c.536-.327 1.169-.49 1.897-.49.746 0 1.383.173 1.91.518.528.34.927.83 1.198 1.47.27.64.394 1.402.37 2.289h-1.05v-.364c-.018-.98-.23-1.72-.636-2.219-.402-.5-.99-.749-1.764-.749-.812 0-1.435.264-1.87.791-.429.527-.643 1.279-.643 2.254 0 .952.214 1.692.644 2.219.434.523 1.047.784 1.84.784.542 0 1.013-.124 1.415-.371.406-.252.725-.614.959-1.085l.959.371a3.428 3.428 0 0 1-1.323 1.533c-.579.36-1.235.539-1.967.539Zm-2.891-3.703v-.861h5.775v.861h-5.775ZM53.426 54a5.035 5.035 0 0 1-1.26.105 2.795 2.795 0 0 1-1.106-.266 1.596 1.596 0 0 1-.735-.742 2.18 2.18 0 0 1-.224-.847c-.01-.29-.014-.618-.014-.987V44.34h1.022v6.881c0 .317.002.583.007.798.01.21.058.397.147.56.168.313.434.5.798.56.369.06.824.047 1.365-.042V54Zm-4.956-6.678v-.882h4.956v.882H48.47Zm9.308 6.888c-.76 0-1.405-.17-1.932-.511a3.257 3.257 0 0 1-1.204-1.407c-.27-.602-.41-1.293-.42-2.072.01-.793.154-1.489.434-2.086a3.204 3.204 0 0 1 1.211-1.4c.527-.336 1.167-.504 1.918-.504.765 0 1.43.187 1.995.56.57.373.96.884 1.17 1.533l-1.009.322a2.129 2.129 0 0 0-.847-1.05 2.338 2.338 0 0 0-1.316-.378c-.555 0-1.015.128-1.379.385a2.24 2.24 0 0 0-.812 1.057c-.177.453-.268.973-.273 1.561.01.905.22 1.633.63 2.184.41.546 1.022.819 1.834.819.513 0 .95-.117 1.31-.35.363-.238.638-.583.825-1.036l1.036.308c-.28.672-.69 1.185-1.232 1.54-.541.35-1.188.525-1.939.525ZM67.854 54v-3.857c0-.42-.04-.805-.119-1.155a2.665 2.665 0 0 0-.385-.924 1.76 1.76 0 0 0-.679-.616c-.275-.145-.611-.217-1.008-.217-.364 0-.686.063-.966.189a1.902 1.902 0 0 0-.7.546 2.445 2.445 0 0 0-.427.854 4.104 4.104 0 0 0-.147 1.148l-.728-.161c0-.775.135-1.426.406-1.953.27-.527.644-.926 1.12-1.197.476-.27 1.022-.406 1.638-.406.453 0 .847.07 1.183.21.34.14.628.329.861.567.238.238.43.511.574.819.145.303.25.628.315.973.065.34.098.681.098 1.022V54h-1.036Zm-5.467 0V43.92h.931v5.691h.105V54h-1.036Zm8.46-8.995V43.85h1.029v1.155h-1.03Zm0 8.995v-7.56h1.029V54h-1.03Zm8.587 0v-3.857c0-.42-.04-.805-.119-1.155a2.661 2.661 0 0 0-.385-.924 1.76 1.76 0 0 0-.679-.616c-.275-.145-.611-.217-1.008-.217-.364 0-.686.063-.966.189a1.904 1.904 0 0 0-.7.546 2.447 2.447 0 0 0-.427.854 4.104 4.104 0 0 0-.147 1.148l-.728-.161c0-.775.135-1.426.406-1.953.27-.527.644-.926 1.12-1.197.476-.27 1.022-.406 1.638-.406.453 0 .847.07 1.183.21.34.14.628.329.861.567.238.238.43.511.574.819.145.303.25.628.315.973.066.34.098.681.098 1.022V54h-1.036Zm-5.467 0v-7.56h.931v1.862h.105V54h-1.036Zm11.323 3.57c-.388 0-.77-.058-1.148-.175a3.145 3.145 0 0 1-1.036-.539 2.977 2.977 0 0 1-.798-.952l.93-.518c.21.42.505.721.883.903.382.187.772.28 1.169.28.546 0 .987-.103 1.323-.308.34-.2.588-.5.742-.896.154-.397.228-.891.224-1.484v-2.016h.119V46.44h.917v7.455c0 .215-.007.42-.021.616-.01.2-.03.397-.063.588-.089.565-.273 1.029-.553 1.393-.276.364-.64.635-1.092.812-.448.177-.98.266-1.596.266Zm-.07-3.36c-.705 0-1.307-.175-1.806-.525a3.406 3.406 0 0 1-1.148-1.435c-.266-.602-.4-1.281-.4-2.037 0-.751.131-1.428.393-2.03.266-.602.646-1.078 1.14-1.428.495-.35 1.088-.525 1.779-.525.709 0 1.306.173 1.792.518.485.345.851.819 1.099 1.421.252.597.378 1.279.378 2.044 0 .751-.124 1.43-.371 2.037-.248.602-.612 1.08-1.092 1.435-.481.35-1.069.525-1.764.525Zm.105-.959c.536 0 .98-.13 1.33-.392.35-.261.611-.62.784-1.078.172-.462.259-.985.259-1.568 0-.593-.087-1.115-.26-1.568-.172-.457-.433-.814-.783-1.071-.346-.257-.782-.385-1.31-.385-.54 0-.989.133-1.343.399a2.361 2.361 0 0 0-.791 1.085c-.168.457-.252.97-.252 1.54 0 .574.086 1.092.259 1.554.177.457.44.819.79 1.085.35.266.79.399 1.317.399Z"/>
  <path fill="#9D9D9D" d="M147.334 54v-1.855H142.7v-1.183l3.325-7.042h1.414l-3.325 7.042h3.22v-2.835h1.26v2.835h1.05v1.183h-1.05V54h-1.26Zm7.388.21c-.653 0-1.237-.147-1.75-.441a3.348 3.348 0 0 1-1.211-1.211c-.294-.513-.441-1.097-.441-1.75v-3.696c0-.653.147-1.237.441-1.75a3.278 3.278 0 0 1 1.211-1.211c.513-.294 1.097-.441 1.75-.441s1.237.147 1.75.441c.513.294.917.698 1.211 1.211.294.513.441 1.097.441 1.75v3.696c0 .653-.147 1.237-.441 1.75a3.28 3.28 0 0 1-1.211 1.211c-.513.294-1.097.441-1.75.441Zm0-1.197a2.07 2.07 0 0 0 1.078-.287 2.17 2.17 0 0 0 .77-.77c.191-.327.287-.686.287-1.078v-3.843c0-.397-.096-.756-.287-1.078a2.17 2.17 0 0 0-.77-.77 2.07 2.07 0 0 0-1.078-.287c-.392 0-.751.096-1.078.287a2.17 2.17 0 0 0-.77.77 2.073 2.073 0 0 0-.287 1.078v3.843c0 .392.096.751.287 1.078.191.322.448.579.77.77.327.191.686.287 1.078.287Zm13.547.987v-3.787c0-.36-.032-.705-.098-1.036a2.577 2.577 0 0 0-.329-.889 1.7 1.7 0 0 0-.63-.63c-.261-.154-.592-.231-.994-.231-.312 0-.597.054-.854.161a1.67 1.67 0 0 0-.651.476 2.316 2.316 0 0 0-.427.812 3.939 3.939 0 0 0-.147 1.141l-.819-.252c0-.733.131-1.36.392-1.883a2.86 2.86 0 0 1 1.113-1.211c.481-.285 1.046-.427 1.694-.427.49 0 .908.077 1.253.231.346.154.633.36.861.616.229.252.409.537.539.854.131.313.222.632.273.959.056.322.084.628.084.917V54h-1.26Zm-5.39 0V43.92h1.12v5.565h.14V54h-1.26Zm8.47 0v-7.56h1.113v1.827l-.182-.238c.089-.233.203-.448.343-.644.145-.196.306-.357.483-.483.196-.159.418-.28.665-.364.247-.084.499-.133.756-.147.257-.019.497-.002.721.049v1.169a2.36 2.36 0 0 0-.861-.056 1.748 1.748 0 0 0-.868.343 1.863 1.863 0 0 0-.567.63 2.715 2.715 0 0 0-.273.805 4.952 4.952 0 0 0-.077.875V54h-1.253Zm7.805.203c-.9 0-1.64-.196-2.219-.588-.574-.397-.926-.95-1.057-1.659l1.274-.203c.103.41.339.737.707.98.369.238.826.357 1.372.357.518 0 .924-.107 1.218-.322.294-.215.441-.506.441-.875 0-.215-.049-.387-.147-.518-.098-.135-.301-.261-.609-.378a14.475 14.475 0 0 0-1.379-.42c-.667-.177-1.192-.362-1.575-.553-.382-.191-.655-.413-.819-.665-.163-.252-.245-.558-.245-.917 0-.443.122-.83.364-1.162.243-.336.581-.595 1.015-.777.439-.182.948-.273 1.526-.273.574 0 1.088.091 1.54.273.453.182.817.441 1.092.777.28.331.446.719.497 1.162l-1.274.231a1.37 1.37 0 0 0-.588-.959c-.326-.233-.749-.357-1.267-.371-.49-.019-.889.068-1.197.259-.303.191-.455.45-.455.777 0 .182.056.338.168.469.117.13.329.254.637.371.313.117.766.25 1.358.399.668.168 1.193.352 1.575.553.388.196.663.43.826.7.164.266.245.595.245.987 0 .728-.268 1.302-.805 1.722-.536.415-1.276.623-2.219.623Z"/>
  <rect width="8" height="8" y="45" fill="#FF844B" rx="4"/>
  <path stroke="#F9F9F9" d="M0 67.5h182"/>
  <path fill="#0A0A0A" d="M24.661 93v-9.093H21.14v-.987h8.071v.987H25.69V93h-1.029Zm4.975 0v-7.56h.924v1.82l-.182-.238c.084-.224.194-.43.33-.616a2.14 2.14 0 0 1 .44-.469c.196-.173.425-.303.686-.392.262-.093.525-.147.791-.161.266-.019.509 0 .728.056v.966a2.497 2.497 0 0 0-.903-.049 1.72 1.72 0 0 0-.903.392 1.878 1.878 0 0 0-.567.707 3 3 0 0 0-.252.868 6.579 6.579 0 0 0-.063.903V93h-1.029Zm8.107.21c-.737 0-1.376-.163-1.918-.49a3.324 3.324 0 0 1-1.253-1.379c-.298-.593-.448-1.288-.448-2.086 0-.826.148-1.54.441-2.142a3.278 3.278 0 0 1 1.24-1.393c.536-.327 1.169-.49 1.897-.49.746 0 1.383.173 1.91.518.528.34.927.83 1.197 1.47.271.64.395 1.402.372 2.289h-1.05v-.364c-.02-.98-.231-1.72-.638-2.219-.4-.5-.989-.749-1.764-.749-.812 0-1.434.264-1.868.791-.43.527-.644 1.279-.644 2.254 0 .952.214 1.692.644 2.219.434.523 1.047.784 1.84.784.542 0 1.013-.124 1.414-.371.407-.252.726-.614.96-1.085l.958.371a3.43 3.43 0 0 1-1.322 1.533c-.58.36-1.235.539-1.968.539Zm-2.89-3.703v-.861h5.774v.861h-5.775Zm9.907 3.703c-.57 0-1.047-.103-1.435-.308a2.088 2.088 0 0 1-.86-.819 2.235 2.235 0 0 1-.288-1.113c0-.41.082-.76.245-1.05.168-.294.395-.534.68-.721a3.393 3.393 0 0 1 1-.427c.383-.093.805-.175 1.267-.245.467-.075.922-.138 1.365-.189.448-.056.84-.11 1.176-.161l-.364.224c.014-.747-.13-1.3-.434-1.659-.303-.36-.83-.539-1.582-.539-.518 0-.956.117-1.316.35-.355.233-.604.602-.749 1.106l-1-.294c.172-.677.52-1.202 1.042-1.575.523-.373 1.202-.56 2.037-.56.69 0 1.277.13 1.757.392.485.257.828.63 1.03 1.12.092.22.153.464.181.735.028.27.042.546.042.826V93h-.917v-1.897l.266.112c-.256.649-.655 1.143-1.197 1.484-.541.34-1.19.511-1.946.511Zm.12-.889c.48 0 .9-.086 1.26-.259.358-.173.648-.408.867-.707a2.41 2.41 0 0 0 .427-1.022c.056-.243.087-.509.091-.798.005-.294.007-.513.007-.658l.392.203c-.35.047-.73.093-1.14.14-.407.047-.808.1-1.205.161-.392.06-.746.133-1.064.217-.215.06-.422.147-.623.259-.2.107-.366.252-.497.434a1.165 1.165 0 0 0-.189.679c0 .22.054.432.161.637.112.205.29.376.532.511.248.135.574.203.98.203Zm8.43.889c-.705 0-1.307-.175-1.806-.525a3.405 3.405 0 0 1-1.148-1.435c-.267-.602-.4-1.281-.4-2.037 0-.751.131-1.428.392-2.03.267-.602.647-1.078 1.142-1.428.494-.35 1.087-.525 1.777-.525.71 0 1.307.173 1.792.518.486.345.852.819 1.1 1.421.252.597.377 1.279.377 2.044 0 .751-.123 1.43-.37 2.037-.248.602-.612 1.08-1.092 1.435-.481.35-1.07.525-1.764.525Zm.104-.959c.537 0 .98-.13 1.33-.392.35-.261.612-.62.785-1.078.172-.462.258-.985.258-1.568 0-.593-.086-1.115-.258-1.568-.173-.457-.435-.814-.785-1.071-.345-.257-.781-.385-1.309-.385-.54 0-.989.133-1.343.399a2.36 2.36 0 0 0-.791 1.085c-.169.457-.253.97-.253 1.54 0 .574.087 1.092.26 1.554.177.457.44.819.79 1.085.35.266.79.399 1.316.399Zm2.373.749v-5.691h-.111V82.92h1.035V93h-.923Zm11.904 0 .007-4.963c0-.583-.163-1.04-.49-1.372-.322-.336-.732-.504-1.232-.504-.284 0-.562.065-.833.196-.27.13-.494.34-.672.63-.172.29-.259.667-.259 1.134l-.609-.175c-.014-.541.091-1.015.315-1.421.229-.406.542-.721.938-.945a2.695 2.695 0 0 1 1.358-.343c.761 0 1.37.236 1.827.707.458.467.686 1.099.686 1.897L68.72 93h-1.029Zm-9.023 0v-7.56h.924v1.862h.112V93h-1.036Zm4.522 0 .007-4.893c0-.602-.16-1.076-.483-1.421-.317-.35-.737-.525-1.26-.525-.522 0-.945.18-1.267.539-.322.355-.483.828-.483 1.421l-.616-.336c0-.485.115-.92.343-1.302.229-.387.542-.69.938-.91a2.7 2.7 0 0 1 1.351-.336c.481 0 .908.103 1.281.308.378.205.675.504.89.896.214.392.321.868.321 1.428L64.205 93H63.19Zm7.493-8.995V82.85h1.028v1.155h-1.028Zm0 8.995v-7.56h1.028V93h-1.028Zm3.267 0V82.71h1.03V93h-1.03Zm3.268 0V82.71h1.029V93h-1.03Z"/>
  <path fill="#9D9D9D" d="M145.745 93.196c-.499 0-.964-.091-1.393-.273a3.305 3.305 0 0 1-1.113-.784 3.19 3.19 0 0 1-.679-1.211l1.197-.343c.154.467.411.821.77 1.064a2.07 2.07 0 0 0 1.211.357c.411-.01.765-.103 1.064-.28.303-.182.537-.43.7-.742.168-.313.252-.674.252-1.085 0-.625-.187-1.132-.56-1.519-.373-.392-.863-.588-1.47-.588a2.326 2.326 0 0 0-1.043.266l-.602-.987 3.738-3.381.161.42h-5.019v-1.19h5.943v1.197l-3.185 3.052-.014-.441c.667-.047 1.251.063 1.75.329a2.82 2.82 0 0 1 1.162 1.141c.28.495.42 1.062.42 1.701 0 .644-.145 1.213-.434 1.708a3.17 3.17 0 0 1-1.176 1.169c-.495.28-1.055.42-1.68.42Zm8.512.014c-.653 0-1.237-.147-1.75-.441a3.347 3.347 0 0 1-1.211-1.211c-.294-.513-.441-1.097-.441-1.75v-3.696c0-.653.147-1.237.441-1.75a3.278 3.278 0 0 1 1.211-1.211c.513-.294 1.097-.441 1.75-.441s1.237.147 1.75.441c.513.294.917.698 1.211 1.211.294.513.441 1.097.441 1.75v3.696c0 .653-.147 1.237-.441 1.75a3.28 3.28 0 0 1-1.211 1.211c-.513.294-1.097.441-1.75.441Zm0-1.197c.397 0 .756-.096 1.078-.287a2.17 2.17 0 0 0 .77-.77c.191-.327.287-.686.287-1.078v-3.843c0-.397-.096-.756-.287-1.078a2.172 2.172 0 0 0-.77-.77 2.07 2.07 0 0 0-1.078-.287c-.392 0-.751.096-1.078.287a2.172 2.172 0 0 0-.77.77 2.074 2.074 0 0 0-.287 1.078v3.843c0 .392.096.751.287 1.078.191.322.448.579.77.77.327.191.686.287 1.078.287Zm13.547.987v-3.787c0-.36-.032-.705-.098-1.036a2.578 2.578 0 0 0-.329-.889 1.7 1.7 0 0 0-.63-.63c-.261-.154-.592-.231-.994-.231-.312 0-.597.054-.854.161a1.671 1.671 0 0 0-.651.476 2.317 2.317 0 0 0-.427.812 3.939 3.939 0 0 0-.147 1.141l-.819-.252c0-.733.131-1.36.392-1.883a2.86 2.86 0 0 1 1.113-1.211c.481-.285 1.046-.427 1.694-.427.49 0 .908.077 1.253.231.346.154.633.36.861.616.229.252.409.537.539.854.131.313.222.632.273.959.056.322.084.628.084.917V93h-1.26Zm-5.39 0V82.92h1.12v5.565h.14V93h-1.26Zm8.47 0v-7.56h1.113v1.827l-.182-.238c.089-.233.203-.448.343-.644.145-.196.306-.357.483-.483.196-.159.418-.28.665-.364.248-.084.5-.133.756-.147a2.43 2.43 0 0 1 .721.049v1.169a2.363 2.363 0 0 0-.861-.056 1.752 1.752 0 0 0-.868.343 1.885 1.885 0 0 0-.567.63c-.13.247-.221.516-.273.805a4.953 4.953 0 0 0-.077.875V93h-1.253Zm7.806.203c-.901 0-1.641-.196-2.219-.588-.574-.397-.927-.95-1.057-1.659l1.274-.203c.102.41.338.737.707.98.368.238.826.357 1.372.357.518 0 .924-.107 1.218-.322.294-.215.441-.506.441-.875 0-.215-.049-.387-.147-.518-.098-.135-.301-.261-.609-.378a14.628 14.628 0 0 0-1.379-.42c-.668-.177-1.193-.362-1.575-.553-.383-.191-.656-.413-.819-.665-.164-.252-.245-.558-.245-.917 0-.443.121-.83.364-1.162.242-.336.581-.595 1.015-.777.438-.182.947-.273 1.526-.273a4.1 4.1 0 0 1 1.54.273c.452.182.816.441 1.092.777.28.331.445.719.497 1.162l-1.274.231a1.377 1.377 0 0 0-.588-.959c-.327-.233-.749-.357-1.267-.371-.49-.019-.889.068-1.197.259-.304.191-.455.45-.455.777 0 .182.056.338.168.469.116.13.329.254.637.371.312.117.765.25 1.358.399.667.168 1.192.352 1.575.553.387.196.662.43.826.7.163.266.245.595.245.987 0 .728-.269 1.302-.805 1.722-.537.415-1.277.623-2.219.623Z"/>
  <rect width="8" height="8" y="84" fill="#F85C7F" rx="4"/>
  <path stroke="#F9F9F9" d="M0 106.5h182"/>
  <path fill="#0A0A0A" d="M25.48 132.21c-.705 0-1.34-.117-1.904-.35a3.687 3.687 0 0 1-1.393-1.008 3.312 3.312 0 0 1-.714-1.547l1.05-.175a2.592 2.592 0 0 0 1.064 1.54c.541.369 1.188.553 1.939.553.495 0 .938-.077 1.33-.231.392-.159.7-.383.924-.672a1.63 1.63 0 0 0 .336-1.029 1.45 1.45 0 0 0-.14-.665 1.336 1.336 0 0 0-.371-.462 2.288 2.288 0 0 0-.504-.301 3.93 3.93 0 0 0-.532-.203l-2.555-.763a4.695 4.695 0 0 1-.854-.336 3.018 3.018 0 0 1-.686-.497 2.133 2.133 0 0 1-.448-.686 2.342 2.342 0 0 1-.161-.896c0-.569.15-1.062.448-1.477a2.877 2.877 0 0 1 1.225-.959c.518-.224 1.108-.334 1.771-.329.672 0 1.272.119 1.799.357a3.4 3.4 0 0 1 1.316 1.022c.345.439.574.959.686 1.561l-1.078.196a2.439 2.439 0 0 0-.483-1.141 2.469 2.469 0 0 0-.966-.742 3.128 3.128 0 0 0-1.281-.273c-.453 0-.856.077-1.211.231a2.06 2.06 0 0 0-.833.616 1.41 1.41 0 0 0-.308.896c0 .341.093.614.28.819.191.205.425.366.7.483.28.117.55.212.812.287l1.974.581c.205.056.446.138.721.245.28.103.55.252.812.448.266.191.485.443.658.756.173.313.259.709.259 1.19 0 .467-.093.884-.28 1.253a2.573 2.573 0 0 1-.777.931 3.56 3.56 0 0 1-1.169.574 4.98 4.98 0 0 1-1.456.203Zm9.243-.21a5.007 5.007 0 0 1-1.26.105 2.795 2.795 0 0 1-1.106-.266 1.598 1.598 0 0 1-.735-.742 2.178 2.178 0 0 1-.224-.847c-.01-.289-.014-.618-.014-.987v-6.923h1.022v6.881c0 .317.002.583.007.798.01.21.058.397.147.56.168.313.434.499.798.56.369.061.824.047 1.365-.042V132Zm-4.956-6.678v-.882h4.956v.882h-4.956ZM36.212 132v-7.56h.924v1.82l-.182-.238c.084-.224.194-.429.33-.616a2.14 2.14 0 0 1 .44-.469c.196-.173.425-.303.686-.392.262-.093.525-.147.791-.161.266-.019.51 0 .728.056v.966a2.504 2.504 0 0 0-.903-.049 1.718 1.718 0 0 0-.903.392 1.88 1.88 0 0 0-.567.707 3.01 3.01 0 0 0-.252.868 6.57 6.57 0 0 0-.063.903V132h-1.029Zm8.108.21c-.738 0-1.377-.163-1.918-.49a3.326 3.326 0 0 1-1.253-1.379c-.299-.593-.448-1.288-.448-2.086 0-.826.147-1.54.44-2.142a3.28 3.28 0 0 1 1.24-1.393c.536-.327 1.169-.49 1.897-.49.746 0 1.383.173 1.91.518.528.341.927.831 1.198 1.47.27.639.394 1.402.37 2.289h-1.05v-.364c-.018-.98-.23-1.72-.636-2.219-.402-.499-.99-.749-1.764-.749-.812 0-1.435.264-1.87.791-.429.527-.643 1.279-.643 2.254 0 .952.214 1.692.644 2.219.434.523 1.047.784 1.84.784.542 0 1.013-.124 1.415-.371.406-.252.725-.614.959-1.085l.959.371a3.428 3.428 0 0 1-1.323 1.533c-.579.359-1.235.539-1.967.539Zm-2.891-3.703v-.861h5.775v.861h-5.775ZM54.565 132v-3.857c0-.42-.04-.805-.119-1.155a2.658 2.658 0 0 0-.385-.924 1.763 1.763 0 0 0-.679-.616c-.275-.145-.611-.217-1.008-.217-.364 0-.686.063-.966.189a1.903 1.903 0 0 0-.7.546 2.443 2.443 0 0 0-.427.854 4.105 4.105 0 0 0-.147 1.148l-.728-.161c0-.775.135-1.426.406-1.953.27-.527.644-.926 1.12-1.197.476-.271 1.022-.406 1.638-.406.453 0 .847.07 1.183.21.34.14.628.329.861.567.238.238.43.511.574.819.145.303.25.628.315.973.065.341.098.681.098 1.022V132h-1.036Zm-5.467 0v-7.56h.931v1.862h.105V132h-1.036Zm11.322 3.57c-.387 0-.77-.058-1.148-.175a3.15 3.15 0 0 1-1.035-.539 2.98 2.98 0 0 1-.799-.952l.931-.518c.21.42.505.721.883.903.382.187.772.28 1.168.28.547 0 .987-.103 1.323-.308.341-.201.588-.499.742-.896.154-.397.23-.891.224-1.484v-2.016h.12v-5.425h.916v7.455c0 .215-.006.42-.02.616a4.68 4.68 0 0 1-.064.588c-.088.565-.273 1.029-.553 1.393a2.46 2.46 0 0 1-1.091.812c-.449.177-.98.266-1.597.266Zm-.07-3.36c-.704 0-1.306-.175-1.806-.525a3.407 3.407 0 0 1-1.147-1.435c-.267-.602-.4-1.281-.4-2.037 0-.751.131-1.428.392-2.03.267-.602.647-1.078 1.142-1.428.494-.35 1.087-.525 1.778-.525.709 0 1.306.173 1.791.518.486.345.852.819 1.1 1.421.252.597.377 1.279.377 2.044 0 .751-.123 1.43-.37 2.037-.248.602-.612 1.08-1.093 1.435-.48.35-1.068.525-1.764.525Zm.105-.959c.537 0 .98-.131 1.33-.392.35-.261.612-.621.785-1.078.172-.462.258-.985.258-1.568 0-.593-.086-1.115-.259-1.568-.172-.457-.434-.814-.784-1.071-.345-.257-.781-.385-1.308-.385-.542 0-.99.133-1.344.399a2.362 2.362 0 0 0-.791 1.085 4.442 4.442 0 0 0-.252 1.54c0 .574.086 1.092.258 1.554.178.457.441.819.791 1.085.35.266.79.399 1.316.399Zm9.364.749a5.007 5.007 0 0 1-1.26.105 2.795 2.795 0 0 1-1.106-.266 1.598 1.598 0 0 1-.735-.742 2.178 2.178 0 0 1-.224-.847c-.01-.289-.014-.618-.014-.987v-6.923h1.022v6.881c0 .317.002.583.007.798.009.21.058.397.147.56.168.313.434.499.798.56.368.061.823.047 1.365-.042V132Zm-4.956-6.678v-.882h4.956v.882h-4.956ZM76.768 132v-3.857c0-.42-.04-.805-.119-1.155a2.656 2.656 0 0 0-.385-.924 1.762 1.762 0 0 0-.679-.616c-.275-.145-.611-.217-1.008-.217-.364 0-.686.063-.966.189a1.904 1.904 0 0 0-.7.546 2.445 2.445 0 0 0-.427.854 4.105 4.105 0 0 0-.147 1.148l-.728-.161c0-.775.136-1.426.406-1.953.27-.527.644-.926 1.12-1.197.476-.271 1.022-.406 1.638-.406.453 0 .847.07 1.183.21.34.14.628.329.861.567.238.238.43.511.574.819.145.303.25.628.315.973.066.341.098.681.098 1.022V132h-1.036Zm-5.467 0v-10.08h.931v5.691h.105V132h-1.036Z"/>
  <path fill="#9D9D9D" d="m142.7 131.993.007-1.12 4.473-4.025c.373-.336.623-.653.749-.952.131-.303.196-.614.196-.931 0-.387-.089-.737-.266-1.05a1.979 1.979 0 0 0-.728-.742 1.974 1.974 0 0 0-1.036-.273c-.401 0-.758.096-1.071.287-.313.187-.56.436-.742.749a1.984 1.984 0 0 0-.259 1.022h-1.274c0-.635.147-1.195.441-1.68.294-.49.693-.873 1.197-1.148.509-.28 1.085-.42 1.729-.42a3.27 3.27 0 0 1 1.68.434c.495.285.884.674 1.169 1.169.289.49.434 1.045.434 1.666 0 .439-.056.819-.168 1.141a2.747 2.747 0 0 1-.504.896c-.229.271-.516.56-.861.868l-3.717 3.339-.161-.42h5.411v1.19H142.7Zm11.776.217c-.654 0-1.237-.147-1.75-.441a3.34 3.34 0 0 1-1.211-1.211c-.294-.513-.441-1.097-.441-1.75v-3.696c0-.653.147-1.237.441-1.75a3.272 3.272 0 0 1 1.211-1.211c.513-.294 1.096-.441 1.75-.441.653 0 1.236.147 1.75.441.513.294.917.698 1.211 1.211.294.513.441 1.097.441 1.75v3.696c0 .653-.147 1.237-.441 1.75a3.28 3.28 0 0 1-1.211 1.211c-.514.294-1.097.441-1.75.441Zm0-1.197c.396 0 .756-.096 1.078-.287.322-.191.578-.448.77-.77.191-.327.287-.686.287-1.078v-3.843c0-.397-.096-.756-.287-1.078a2.176 2.176 0 0 0-.77-.77 2.075 2.075 0 0 0-1.078-.287c-.392 0-.752.096-1.078.287a2.168 2.168 0 0 0-.77.77 2.063 2.063 0 0 0-.287 1.078v3.843c0 .392.095.751.287 1.078.191.322.448.579.77.77.326.191.686.287 1.078.287Zm13.547.987v-3.787c0-.359-.033-.705-.098-1.036a2.598 2.598 0 0 0-.329-.889 1.7 1.7 0 0 0-.63-.63c-.261-.154-.593-.231-.994-.231-.313 0-.597.054-.854.161a1.67 1.67 0 0 0-.651.476 2.316 2.316 0 0 0-.427.812 3.937 3.937 0 0 0-.147 1.141l-.819-.252c0-.733.131-1.36.392-1.883a2.862 2.862 0 0 1 1.113-1.211c.481-.285 1.045-.427 1.694-.427.49 0 .908.077 1.253.231.345.154.632.359.861.616.229.252.408.537.539.854.131.313.222.632.273.959.056.322.084.628.084.917V132h-1.26Zm-5.39 0v-10.08h1.12v5.565h.14V132h-1.26Zm8.47 0v-7.56h1.113v1.827l-.182-.238c.089-.233.203-.448.343-.644.145-.196.306-.357.483-.483.196-.159.418-.28.665-.364.247-.084.499-.133.756-.147.257-.019.497-.002.721.049v1.169a2.354 2.354 0 0 0-.861-.056 1.75 1.75 0 0 0-.868.343 1.87 1.87 0 0 0-.567.63 2.715 2.715 0 0 0-.273.805 4.952 4.952 0 0 0-.077.875V132h-1.253Zm7.805.203c-.9 0-1.64-.196-2.219-.588-.574-.397-.926-.95-1.057-1.659l1.274-.203c.103.411.339.737.707.98.369.238.826.357 1.372.357.518 0 .924-.107 1.218-.322.294-.215.441-.506.441-.875 0-.215-.049-.387-.147-.518-.098-.135-.301-.261-.609-.378a14.3 14.3 0 0 0-1.379-.42c-.667-.177-1.192-.362-1.575-.553-.382-.191-.655-.413-.819-.665-.163-.252-.245-.558-.245-.917 0-.443.122-.831.364-1.162.243-.336.581-.595 1.015-.777.439-.182.948-.273 1.526-.273.574 0 1.088.091 1.54.273.453.182.817.441 1.092.777.28.331.446.719.497 1.162l-1.274.231a1.37 1.37 0 0 0-.588-.959c-.326-.233-.749-.357-1.267-.371-.49-.019-.889.068-1.197.259-.303.191-.455.45-.455.777 0 .182.056.338.168.469.117.131.329.254.637.371.313.117.766.25 1.358.399.668.168 1.193.352 1.575.553.388.196.663.429.826.7.164.266.245.595.245.987 0 .728-.268 1.302-.805 1.722-.536.415-1.276.623-2.219.623Z"/>
  <rect width="8" height="8" y="123" fill="#8676FE" rx="4"/>
</svg>
