<svg xmlns="http://www.w3.org/2000/svg" width="46" height="46" fill="none" viewBox="0 0 46 46">
  <circle cx="23" cy="23" r="21" stroke="#F5F5F5" stroke-width="3"/>
  <path stroke="#1AB0B0" stroke-linecap="round" stroke-width="3" d="M23 2A21 21 0 1 1 2.03 21.896"/>
  <circle cx="23" cy="2" r="1" fill="#fff"/>
  <path fill="#191C32" d="m11.398 28 3.289-8.067H10.52V18.64h5.629v1.293L12.866 28h-1.468Zm9.359-9.549a3.16 3.16 0 0 1 2.789 1.619c.285.503.428 1.077.428 1.723v2.977c0 .684-.143 1.284-.429 1.8a3.02 3.02 0 0 1-1.183 1.196c-.502.286-1.083.429-1.742.429-.494 0-.957-.093-1.39-.28a3.12 3.12 0 0 1-1.132-.831l1.001-.93c.178.23.401.414.67.552.268.14.552.209.851.209.386 0 .726-.094 1.02-.28.3-.186.532-.429.696-.728a1.96 1.96 0 0 0 .247-.962v-1.716l.273.299a2.913 2.913 0 0 1-1 .832 2.775 2.775 0 0 1-1.281.306c-.585 0-1.105-.135-1.56-.404a2.95 2.95 0 0 1-1.08-1.098 3.12 3.12 0 0 1-.396-1.573c0-.585.147-1.114.442-1.586.295-.472.685-.85 1.17-1.131a3.14 3.14 0 0 1 1.606-.422Zm0 1.314c-.338 0-.648.082-.93.247a1.82 1.82 0 0 0-.663.656 1.773 1.773 0 0 0-.247.923c0 .338.082.648.247.93.165.277.386.498.663.662.277.165.585.247.923.247.338 0 .646-.082.923-.247a1.87 1.87 0 0 0 .663-.663c.165-.281.247-.591.247-.929 0-.334-.082-.64-.247-.917a1.818 1.818 0 0 0-.656-.662 1.773 1.773 0 0 0-.923-.247ZM26.959 28l-.91-.91 8.456-8.45.91.916L26.96 28Zm6.506.195c-.429 0-.82-.104-1.176-.312a2.464 2.464 0 0 1-.845-.845 2.263 2.263 0 0 1-.319-1.183c0-.425.109-.815.325-1.17.217-.355.503-.64.858-.851a2.215 2.215 0 0 1 1.157-.319c.43 0 .822.106 1.177.319.355.207.637.49.845.845.212.35.318.743.318 1.176 0 .433-.106.828-.318 1.183-.208.351-.49.633-.845.845a2.286 2.286 0 0 1-1.177.312Zm0-1.177c.213 0 .406-.052.579-.155.178-.109.318-.252.422-.43.109-.177.163-.37.163-.578 0-.208-.054-.4-.163-.579a1.161 1.161 0 0 0-.422-.422 1.07 1.07 0 0 0-.579-.162c-.208 0-.4.054-.578.162a1.232 1.232 0 0 0-.423.422 1.128 1.128 0 0 0-.156.579c0 .208.052.4.156.578.109.178.25.321.423.43.178.104.37.155.578.155ZM28 23.125c-.43 0-.821-.104-1.177-.312a2.446 2.446 0 0 1-.851-.845 2.299 2.299 0 0 1-.312-1.183 2.2 2.2 0 0 1 .325-1.17c.217-.355.503-.64.858-.851A2.215 2.215 0 0 1 28 18.445c.429 0 .819.106 1.17.319.355.207.64.49.851.845.213.35.319.743.319 1.176 0 .433-.106.828-.319 1.183a2.446 2.446 0 0 1-.851.845 2.252 2.252 0 0 1-1.17.312Zm0-1.177c.208 0 .4-.052.578-.155.178-.109.319-.252.423-.43a1.09 1.09 0 0 0 .162-.578c0-.208-.054-.4-.162-.579a1.161 1.161 0 0 0-.423-.422 1.091 1.091 0 0 0-.578-.162c-.208 0-.4.054-.579.162a1.232 1.232 0 0 0-.422.422 1.097 1.097 0 0 0-.163.579c0 .208.055.4.163.578.108.178.25.321.422.43.174.104.367.155.579.155Z"/>
</svg>
